<?xml version="1.0" encoding="utf-8"?>
<!-- Generator: Adobe Illustrator 26.4.1, SVG Export Plug-In . SVG Version: 6.00 Build 0)  -->
<svg version="1.1" id="Layer_1" xmlns="http://www.w3.org/2000/svg" xmlns:xlink="http://www.w3.org/1999/xlink" x="0px" y="0px"
	 viewBox="0 0 1714.8 1172.7" style="enable-background:new 0 0 1714.8 1172.7;" xml:space="preserve">
<style type="text/css">
	.st0{opacity:0.13;fill:#FFFFFF;}
	.st1{opacity:0.15;fill:#FFFFFF;}
	.st2{fill:#7CFC00;}
	.st3{fill:none;stroke:#FFFFFF;stroke-width:1.2108;stroke-miterlimit:10;}
	.st4{opacity:0.18;fill:#FFFFFF;}
	.st5{opacity:0.18;}
	.st6{fill:#7CFC00;stroke:#000000;stroke-width:1.2108;stroke-miterlimit:10;}
	.st7{fill:none;stroke:#000000;stroke-width:1.2108;stroke-miterlimit:10;}
	.st8{stroke:#F7D63F;stroke-width:1.2108;stroke-miterlimit:10;}
	.st9{opacity:0.14;fill:#FFFFFF;}
	.st10{fill:#85D6A6;}
	.st11{fill:#050505;}
	.st12{fill:#163561;}
	.st13{fill:#A06A6A;}
	.st14{fill:#7C5555;}
	.st15{fill:#B27D7D;}
	.st16{fill:#D8AE98;}
	.st17{opacity:0.17;fill:#0A0A0A;}
	.st18{fill:#F7D63F;stroke:#FFFFFF;stroke-width:1.2108;stroke-miterlimit:10;}
	.st19{fill:#3B3348;}
	.st20{fill:#54A4F3;}
	.st21{fill:#E89F90;}
	.st22{fill:#BF635F;}
	.st23{fill:#E79E8F;}
	.st24{fill:#21202B;}
	.st25{fill:#CD5959;}
	.st26{fill:#242638;}
	.st27{fill:#DF665C;}
	.st28{fill:#FFFFFF;}
	.st29{fill:#C7F1FF;}
	.st30{opacity:0.27;}
	.st31{fill:#EFC266;}
	.st32{fill:#1B71DE;}
	.st33{fill:#70BEF2;}
	.st34{fill:#FFFFFF;stroke:#FFFFFF;stroke-width:6.0542;}
	.st35{fill:#1D4FA0;stroke:#000000;stroke-width:0.6054;stroke-miterlimit:10;}
	.st36{fill:#FFFFFF;stroke:#000000;stroke-width:0.7117;stroke-miterlimit:10;}
	.st37{fill:#1D4FA0;stroke:#000000;stroke-width:0.605;stroke-miterlimit:10;}
	.st38{fill:#FFB680;}
	.st39{fill:#FFD6BB;}
	.st40{fill:#EC8B56;}
	.st41{fill:#8CBBEA;}
</style>
<polygon class="st0" points="240.5,388.8 422.7,411.1 451.5,264.1 497,370.2 661.5,311.2 591.9,424.2 761.4,478.8 549.4,510.8 
	608.8,612.8 510.9,545.2 406.4,694.1 404,531.9 296.6,551.5 370.7,469.1 "/>
<path class="st1" d="M1302.2,924.8l-172.2,0c-7.2,0-13-5.8-13-13V771.8c0-7.2,5.8-13,13-13l172.2,0c7.2,0,13,5.8,13,13l0,139.9
	C1315.2,918.9,1309.4,924.8,1302.2,924.8z"/>
<circle class="st2" cx="1254" cy="799.8" r="16.5"/>
<path class="st3" d="M1302.2,924.8l-172.2,0c-7.2,0-13-5.8-13-13V771.8c0-7.2,5.8-13,13-13l172.2,0c7.2,0,13,5.8,13,13l0,139.9
	C1315.2,918.9,1309.4,924.8,1302.2,924.8z"/>
<polyline class="st3" points="1116.9,867.3 1174.6,809.6 1233.3,868.2 1273.9,827.6 1315.2,868.8 "/>
<circle class="st3" cx="1248.8" cy="794.7" r="16.5"/>
<path class="st3" d="M1323.4,486.8H653.7c-23.2,0-42-18.8-42-42v0c0-23.2,18.8-42,42-42h669.8c23.2,0,42,18.8,42,42v0
	C1365.4,468,1346.6,486.8,1323.4,486.8z"/>
<path class="st4" d="M1323.4,486.8H653.7c-23.2,0-42-18.8-42-42v0c0-23.2,18.8-42,42-42h669.8c23.2,0,42,18.8,42,42v0
	C1365.4,468,1346.6,486.8,1323.4,486.8z"/>
<path class="st5" d="M527.2,669.9H395.4c5.1-1.3,9.5-2.8,13.1-4c16.3-5.5,18.7-29.5,18.9-31.5c0.2-0.3,0.2-0.4,0.2-0.4l-9.6,0.1
	l-31.5,0.2c-6.8,0-14,0-21.1,0c-7.1,0-14.2,0-20.8-0.1c-22.1-0.1-57.5,16.9-83,31.4c-17.8,10.1-39.9,33.9-65.4,47.1
	c-21.4,11.1-34.5,34-40.1,45.9c-10.7,22.9-45.8,94.3-59,100c-8.7,3.7-41.7,7.4-63.1,9.5v136.9c0,0,143.7-52.3,173.1-55.1
	c29.3-2.8,58.5-18.4,81.3-34.1c15.5-10.7,43.3-10,72.7-8c8.8,0.6,18.4,1.9,27.5,3.5c0,0.1,0.1,0.2,0.1,0.3
	c14.3,2.8,30.2,6.5,35.9,7.5c0,0,0,0,0,0c2.4,0.6,3.8,1,3.8,1s8-18.6,2.9-29c-1.4-2.8-2.8-5.3-4.4-7.6c-6.6-9.3-15.6-14-30-17.8
	h130.2c8.1,0,14.7-6.6,14.7-14.7V684.6C541.9,676.5,535.3,669.9,527.2,669.9z M322.9,843.7c0.9-4.7,1.8-9.9,2.6-15.5
	c1.6-11.1,3.9-29.8,3.7-34.9c-0.5-11.3,1.1-16.2-6.2-19.5c-2.2-1-5.1-1.8-9.2-2.7c-13.6-2.8-52.3-8.7-69.4-11.3
	c2.4-2.2,7.2-6.6,13-11.6c3.5-3,7.2-6.1,11.1-9.1c13.2-10.3,25.7-36.5,25.7-36.5s43.9-14,66.9-31.1c3.9,0.6,7.6,0.9,11.2,1
	c-3.8,2.7-6.3,7.1-6.3,12.1v166.5c0,3.9,1.6,7.5,4.1,10.1c-15.5-1.6-34-2.5-50.5-3.6C320.8,853.7,321.9,849,322.9,843.7z"/>
<path class="st6" d="M1388,217.4H326.4c-19.4,0-35.2,18.3-35.2,40.8v47.9h1131.9v-47.9C1423.2,235.6,1407.4,217.4,1388,217.4z"/>
<path class="st7" d="M291.2,666v-360h1131.9v642.3c0,22.5-15.7,40.8-35.2,40.8H326.4c-19.4,0-35.2-18.3-35.2-40.8V666"/>
<circle class="st8" cx="343.9" cy="261.7" r="15.6"/>
<circle class="st8" cx="389.7" cy="261.7" r="15.6"/>
<circle class="st8" cx="435.6" cy="261.7" r="15.6"/>
<g>
	<path class="st9" d="M521.1,851.2H374.6c-8.1,0-14.7-6.6-14.7-14.7V670.1c0-8.1,6.6-14.7,14.7-14.7h146.6c8.1,0,14.7,6.6,14.7,14.7
		v166.5C535.8,844.6,529.2,851.2,521.1,851.2z"/>
	<g>
		<g>
			<path class="st10" d="M451.6,719.3l-12-17.9h-44.4c-4.8,0-8.6,3.9-8.6,8.6v9.3l0,62.9c0,4.8,3.9,8.6,8.6,8.6l112.7,0
				c4.8,0,8.6-3.9,8.6-8.6v-54.3c0-4.8-3.9-8.6-8.6-8.6H451.6z"/>
			<circle class="st11" cx="399.2" cy="710.5" r="3.5"/>
			<circle class="st11" cx="410.4" cy="710.5" r="3.5"/>
			<circle class="st11" cx="421.7" cy="710.5" r="3.5"/>
		</g>
		<circle class="st12" cx="451.6" cy="753.3" r="11.8"/>
	</g>
	<path class="st3" d="M521.1,851.2H374.6c-8.1,0-14.7-6.6-14.7-14.7V670.1c0-8.1,6.6-14.7,14.7-14.7h146.6c8.1,0,14.7,6.6,14.7,14.7
		v166.5C535.8,844.6,529.2,851.2,521.1,851.2z"/>
</g>
<g>
	<path class="st13" d="M230.1,744.1c0,0,60,9,77.7,12.6c17.7,3.6,14.7,7.5,15.4,22.1c0.2,5.1-2.1,23.8-3.7,34.9
		c-3,20.7-7,36.5-11.7,40.9c-7.2,6.8-66.9,10.6-81.8-6.2C211.1,831.6,217.9,770.5,230.1,744.1z"/>
	<path class="st14" d="M236.8,817.5l11.6-29.3c0,0,22,6.9,34.1,2.8c-4.6,14.1-6.7,29.4-0.9,37.3c-11.2,1.7-27.4,8.3-27.4,8.3
		L236.8,817.5z"/>
	<path class="st15" d="M422.4,905.6c0,0-1.4-0.4-3.8-1c-6.5-1.7-20.6-5.1-36-7.8c-9.1-1.6-18.7-3-27.5-3.5c-29.3-2-57.1-2.7-72.7,8
		c-22.8,15.8-52,31.4-81.3,34.1c-25.7,2.4-139.4,42.9-167,52.9V853c21.1-2.2,49.1-5.5,57-8.9c13.2-5.6,48.3-77.1,59-100
		c5.6-11.9,18.7-34.8,40.1-45.9c25.5-13.2,47.6-37,65.4-47.1c25.5-14.4,60.9-31.5,83-31.4c13.2,0.1,28.3,0.1,41.9,0.1h0.4
		c22.2,0,40.4-0.1,40.4-0.1s0,0.1,0,0.2c-0.1,1.1-0.7,7.4-3.3,14.2c-2.6,7-7.3,14.5-15.5,17.3c-9.8,3.4-25.8,8.9-47.3,5.6
		c-23,17.1-66.9,31.1-66.9,31.1s-12.5,26.2-25.7,36.5c-10.4,8.1-20.3,17.2-24.1,20.7c-1.1,1-1.6,1.5-1.6,1.5s-3.4,35.3-3.4,45.8
		c0,3.6,2.8,9.3,7.1,15.5c6.2,8.8,15.3,18.6,23.6,24.7c2.6,1.9,5.1,3.5,7.4,4.6c6.3,2.9,22.8,4.4,42,5.6c3.1,0.2,6.3,0.4,9.5,0.6
		c14.6,0.9,30,1.8,43,3.2c7.3,0.8,13.9,1.7,19.2,2.9c15.9,3.6,25.9,7.6,33.2,15.9c2.6,3,4.9,6.5,7,10.8c1,2.1,1.5,4.5,1.6,7
		C427.5,893.6,422.4,905.6,422.4,905.6z"/>
	<path class="st16" d="M418.6,904.6c5.4-9.1,0.2-23-12-28.7c-12.1-5.7-22.4-2.7-22.4-2.7s-3.1,19.7-1.6,23.8
		C397,899.9,412.9,903.6,418.6,904.6z"/>
	<path class="st16" d="M421.5,619.5c0,0-4.1,8.3-18.2,9.3c-10.5,0.8-22.9,1.5-22.9,1.5v-10.5L421.5,619.5z"/>
</g>
<path class="st17" d="M477.6,365.3c-52.5,0-95.1,42.6-95.1,95.1c0,27.2,11.4,51.7,29.6,69c4.4,4.2,9.2,7.9,14.3,11.2
	c1,0.6,2,1.3,3.1,1.9c0.5,0.3,1,0.6,1.5,0.8c2.5,1.4,5.2,2.8,7.9,4c0.9,0.4,1.9,0.8,2.8,1.2c11.1,4.5,23.2,7,36,7
	c2.2,0,4.4-0.1,6.6-0.2c10.1-0.7,19.7-2.9,28.7-6.5c2.3-0.9,4.6-2,6.8-3.1c9.1-4.5,17.4-10.5,24.6-17.5c0.7-0.7,1.3-1.3,2-2
	c0,0,0,0,0.1-0.1c16.3-17.1,26.3-40.2,26.3-65.6C572.7,407.9,530.2,365.3,477.6,365.3z"/>
<g>
	<path class="st18" d="M564.3,453.4c0,25.5-10,48.6-26.3,65.6c0,0,0,0-0.1,0.1c-0.6,0.7-1.3,1.4-2,2c-7.2,7.1-15.5,13-24.6,17.5
		c-2.2,1.1-4.5,2.1-6.8,3.1c-9,3.6-18.6,5.8-28.7,6.5c-2.2,0.1-4.4,0.2-6.6,0.2c-12.7,0-24.9-2.5-36-7c-0.9-0.4-1.9-0.8-2.8-1.2
		c-2.7-1.2-5.3-2.5-7.9-4c-0.5-0.3-1-0.6-1.5-0.8c-1-0.6-2.1-1.2-3.1-1.9c-5.1-3.3-9.9-7-14.3-11.2c-18.3-17.3-29.6-41.8-29.6-69
		c0-52.5,42.6-95.1,95.1-95.1C521.7,358.3,564.3,400.9,564.3,453.4z"/>
	<g>
		<g>
			<g>
				<g>
					<path class="st19" d="M516.8,459.4c-0.2,2.1,0.8,4.2,2.2,5.6c1.6,1.6,3.8,2.2,5.6,3.5c1.8,1.3,3.4,3.7,2.2,5.8
						c-1.3,2.9-5.4,2.1-8.5,2.7c-5.6,1.3-7.8,8-11.8,12.2c-3.7,3.7-9.1,5.3-14.4,5.3c-5.3,0-10.4-1.6-15.2-3.4
						c-4.6-1.8-9.4-3.7-14.4-3.2c-7.4,0.8-14.4,7-21.4,4.6c-5.8-2.1-7.8-8.8-9.6-14.6s-4.8-12.5-10.7-13.4c-3.4-0.5-6.9,1-9.9-0.3
						c-3.2-1.3-5-5.1-4.3-8.5c0.5-3.4,2.9-6.2,5.8-8.3c3-2.1,6.9-3.5,9-6.6c4-5.9-0.5-14.7,3-21.1c1.6-2.9,4.6-4.8,7.7-5.9
						c1.4-0.5,2.9-1,4-1.9c1-0.8,1.4-1.9,1.9-3c2.2-4.6,4-9.6,7-13.9c3-4.3,7.5-7.8,12.6-8.2c4.2-0.3,8.2,1.4,12.3,1
						c3.2-0.3,6.1-2.2,9.4-2.4c3.4-0.2,7.2,2.1,6.6,5.1c2.9-0.5,5.9-0.5,8.5,0.8c2.6,1.1,4.8,3.7,5,6.6c0.2,1.6-0.5,3.2-0.3,4.8
						c0.3,5.3,6.6,7.5,9.9,11.5c2.2,2.6,3.5,6.1,3.2,9.6c-0.3,4-2.6,8.2-1,12c1.8,4.5,8.2,6.2,9.1,11
						C521.1,451.1,517.1,454.9,516.8,459.4z"/>
				</g>
			</g>
			<g>
				<path class="st20" d="M434.7,512.7l-0.5,8.7l-0.3,4.9v0l-0.8,13.9c-0.9-0.4-1.9-0.8-2.8-1.2c-2.7-1.2-5.3-2.5-7.9-4
					c-0.5-0.3-1-0.6-1.5-0.8c-1-0.6-2.1-1.2-3.1-1.9c-5.1-3.3-9.9-7-14.3-11.2c0.8-1.7,1.5-3.4,2.3-5.1c1.6-3.5,3.2-6.9,4.8-9.9
					c4.2-8.1,8-13.8,10.9-14.4c8.6-2,11.9,13.2,12.8,18.9C434.6,511.9,434.7,512.7,434.7,512.7z"/>
			</g>
			<g>
				<g>
					<path class="st21" d="M502.2,491.2l-0.6,1.3l-11.2,23.4l-5,10.4l-9.9,20.7c-2.2,0.1-4.4,0.2-6.6,0.2c-12.7,0-24.9-2.5-36-7
						c-0.9-0.4-1.9-0.8-2.8-1.2l3.6-12.7v0l1.3-4.7l2.9-10.4l3.5-12.2l1.7-5.9l0.8-2.9c-0.1-1.3-1.2-4.4-1.4-5c0,0,0,0,0,0
						c0-0.1,0-0.1,0-0.1c0.2,0,4.2-1.4,7.2-2.6c2.1-0.8,3.5-2.6,3.7-4.6l1.7-15.6l1.2-11.7l0.2-1.7l0.1-1l3-0.2l7.1-0.5l6.7-0.4
						c0.4,0,0.8,0,1.1,0.1c2.7,0.4,4.7,2.6,4.8,5.2l0,0.6l0.2,5.2l0.7,19.3c0.2,2.2,1.6,4.2,3.7,5l4.6,1.7l0,0l0.6,0.2
						c0,0-0.3,0.5-1,1.4l7.4,3.1L502.2,491.2z"/>
				</g>
			</g>
			<g>
				<path class="st20" d="M526.2,496.2c-2.4,4-4.9,9.8-7.4,16.6c-1.3,3.6-2.6,7.5-3.8,11.6c-1.3,4.2-2.6,8.6-3.8,13.1
					c-2.2,1.1-4.5,2.1-6.8,3.1c-9,3.6-18.6,5.8-28.7,6.5c-2.2,0.1-4.4,0.2-6.6,0.2c-12.7,0-24.9-2.5-36-7c-0.9-0.4-1.9-0.8-2.8-1.2
					c-2.7-1.2-5.3-2.5-7.9-4c-0.5-0.3-1-0.6-1.5-0.8c-1-0.6-2.1-1.2-3.1-1.9c0.9-4,1.6-8.7,2.1-13.4c0.4-3.6,0.7-7.3,0.9-10.7
					c0.6-9.2,0.6-16.5,0.6-16.5l13.7-4.3h0l4.1-1.3l3.4-1.1l2.4-0.7l1.7,8.5l7.5,37.1v0l0,0l27.7-37.2l6.7-9l0.2-0.2l0.1-0.2
					l17.3,5.9L526.2,496.2z"/>
			</g>
			<g>
				<g>
					<path class="st22" d="M455.2,463.4l-0.6,7.5c0,0,19.4,1.3,25.1-18.7C485.4,432.2,455.2,463.4,455.2,463.4z"/>
				</g>
			</g>
			<g>
				<path class="st23" d="M444,431.7c0,0-0.6,19,4.8,25.3c5.4,6.4,14.2,9.9,25.4,4.5c11.4-5.4,16-18.7,16.6-22.6
					c0.8-3.8,0-12.2,0-12.2l-6.9-24.3l-9-5l-32.2,13l-3.8,19.8L444,431.7z"/>
				<g>
					<g>
						
							<ellipse transform="matrix(0.1439 -0.9896 0.9896 0.1439 -35.8357 815.1815)" class="st24" cx="453.2" cy="428.3" rx="4.6" ry="1.9"/>
					</g>
				</g>
				<g>
					<g>
						<path class="st24" d="M478.1,431.7c0.3-2.6-0.2-4.8-1.1-5c-1-0.2-2.1,1.8-2.6,4.3c-0.3,2.6,0.2,4.8,1.1,5
							C476.6,436.3,477.7,434.3,478.1,431.7z"/>
					</g>
				</g>
				<g>
					<g>
						<path class="st25" d="M462.7,443.2c0.2,0,0.2,0,0.2-0.2c0.3-0.3,0.5-1,0.3-1.4c0-0.2-0.2-0.2-0.2-0.2
							c-0.6-0.2-1.3-0.3-1.8-0.6c-0.5-0.3-0.8-0.8-0.8-1.3s0.3-0.8,0.5-1.3l0.2-0.2c1.6-2.6,1.9-5.9,2.1-8.6c0-0.2-0.2-0.3-0.3-0.3
							c0,0-0.3,0.2-0.3,0.3c-0.2,2.7-0.3,5.9-1.9,8.5l-0.2,0.2c-0.3,0.5-0.6,1-0.6,1.6s0.3,1.3,1.1,1.8c0.5,0.3,1.1,0.5,1.8,0.6
							c0,0.3,0,0.5-0.2,0.6C462.5,442.9,462.5,443.1,462.7,443.2L462.7,443.2z"/>
					</g>
				</g>
				<g>
					<g>
						<path class="st26" d="M447,421c3.4-2.1,10.9-3,12.5,1.8c0.2,0.3-0.2,0.8-0.5,0.6c-1.8-0.5-3-1.6-4.8-1.9
							c-2.2-0.5-4.6-0.2-6.9,0.3C446.8,421.8,446.5,421.1,447,421L447,421z"/>
					</g>
				</g>
				<g>
					<g>
						<g>
							<path class="st27" d="M468.9,449.6c0,0-4,6.2-8.6,4.8c-4.5-1.4-4.6-7.8-4.6-7.8s2.6-1.8,3.8-1.8c1.4,0.2,2.7,1.6,2.7,1.6
								s1.3-0.8,2.7-0.6C466.5,446.3,468.1,448.8,468.9,449.6z"/>
						</g>
					</g>
					<g>
						<g>
							<path class="st28" d="M455.8,446.7l13.1,3C468.9,449.6,459,457,455.8,446.7z"/>
						</g>
					</g>
				</g>
				<g>
					<g>
						<path class="st26" d="M483,426.3c-2.4-3-9.4-6.2-12.3-2.1c-0.2,0.3-0.2,0.8,0.3,0.8c1.8,0.2,3.4-0.5,5.1-0.3
							c2.4,0.2,4.3,1.3,6.4,2.4C482.9,427.1,483.3,426.6,483,426.3L483,426.3z"/>
					</g>
				</g>
				<g>
					<g>
						<path class="st19" d="M450.2,419.9c-0.8,2.7-1.6,5.6-3.4,8c-2.6,3.8-7.2,6.7-7.2,11.4c-2.1-8.8,0.3-18.1,2.7-26.9
							c1.3-4.8,2.7-9.6,5.8-13.4c2.9-3.7,7.4-6.2,11.8-7.5c4.6-1.3,9.4-1.6,14.2-1.4c4.6,0.2,9.4,0.6,13.1,3.5c1.6,1.3,2.9,3,4,4.8
							c6.6,10.2,9.3,23,7.4,35.1c0,0.3-0.2,0.6-0.3,1c-0.3,0.3-1,0.3-1.4,0.3c-1.4,0.2-2.7,1.4-4.3,1.4c-1.3,0-2.4-1-3-2.1
							c-0.6-1.1-1-2.4-1.3-3.7c-2.2-6.6-8.8-11-10.6-17.8c-0.6-2.7-0.5-5.8-1.3-8.5c-2.2,1.8-4.6,3.5-6.9,5.3
							c-1,0.6-1.9,1.4-2.9,1.9c-1,0.5-1.9,0.6-3,1c-3.5,1-6.9,2.2-10.1,3.8c-0.8,0.3-1.4,0.8-2.1,1.3
							C450.8,417.8,450.5,418.7,450.2,419.9z"/>
					</g>
				</g>
				<g>
					<g>
						<g>
							<path class="st21" d="M489.6,436c0,0,2.9-8.2,9.4-1.9c2.6,2.4-0.8,11.5-9.9,9.4C489.3,443.4,486.5,441.5,489.6,436z"/>
						</g>
					</g>
					<g>
						<g>
							<path class="st25" d="M491.2,440.8c1.1,0.5,3.7,1.1,5.3,0.2c0.2,0,0.2-0.3,0-0.3c0-0.2-0.3-0.2-0.3,0c-1.6,1-4.5,0.2-5.1-0.3
								l0.2-0.2c0.5-0.5,1.4-1.1,1.1-2.4c-0.2-0.5-0.3-0.8-0.8-1c-0.3-0.2-0.5-0.2-0.8-0.2c0.5-1,1.8-3.2,3.4-3.2
								c1.6,0.2,2.7,0.6,3.4,1.4c0.8,1.1,0.8,2.2,0.8,2.2c0,0.2,0.2,0.3,0.2,0.3c0.2,0,0.3-0.2,0.3-0.2s0.2-1.4-1-2.7
								c-0.8-1-2.1-1.6-3.8-1.8c-2.4-0.2-4.2,3.7-4.2,3.8c0,0.2,0,0.2,0,0.3c0,0,0.2,0.2,0.3,0c0,0,0.5-0.2,1,0
								c0.2,0.2,0.3,0.3,0.5,0.6c0.2,0.8-0.5,1.4-1,1.8c-0.2,0.2-0.3,0.3-0.5,0.5c0,0.2,0,0.3,0.2,0.5
								C490.7,440.5,490.9,440.7,491.2,440.8z"/>
						</g>
					</g>
				</g>
			</g>
			<g>
				<path class="st20" d="M537.9,517.8C537.8,517.9,537.8,517.9,537.9,517.8c-0.7,0.8-1.4,1.4-2.1,2.1c-7.2,7.1-15.5,13-24.6,17.5
					c-2.2,1.1-4.5,2.1-6.8,3.1l3.9-15l2.9-11.1l3-11.7l12-6.6C531.1,501.9,534.9,509.4,537.9,517.8z"/>
			</g>
			<g>
				<path class="st29" d="M488.9,483.6l-34.7,46.6l-9.1-45.8l-5.8,1.8c1.8,10.1,9.9,56.2,13.6,57.1c4,1.1,41.1-52.2,44.5-57
					L488.9,483.6z"/>
			</g>
			<g>
				<g>
					<path class="st29" d="M405.9,516c15.5,3.5,31.2,6.1,46.9,7.8l-2.2-11c-13.4-1.6-26.7-3.8-40-6.7
						C409.1,509.2,407.5,512.5,405.9,516z"/>
				</g>
				<g>
					<g>
						<path class="st29" d="M537.8,517.9c-0.6,0.7-1.3,1.4-2,2c-2.8,0.4-5.6,0.9-8.3,1.6c-1.8,0.5-3.7,0.8-5.4,1.3
							c-2.3,0.5-4.7,1.1-7,1.6c-2.2,0.5-4.5,0.9-6.7,1.2c-1.1,0.2-2.2,0.3-3.3,0.4c-5.3,0.6-10.4,0.6-16.6,0.5
							c-0.9,0-1.9-0.1-2.8-0.1c-5.5-0.2-11-0.5-16.5-0.9c-3.6-0.2-7.1-0.5-10.7-0.8l7.5-10.1c3.6,0.3,7.2,0.6,10.7,0.8
							c4,0.2,8.1,0.4,12.2,0.5c0.6,0,1.1,0,1.7,0c5,0.1,9.3,0.1,13.5-0.4c2.4-0.3,4.8-0.7,7.2-1.1c2.5-0.5,5.1-1.1,7.7-1.7
							c0.3-0.1,0.6-0.1,1-0.2c1.8-0.5,3.7-0.8,5.6-1.3c2.9-0.6,5.9-1.3,9-1.8C535.6,512.1,536.7,515,537.8,517.9z"/>
					</g>
				</g>
			</g>
			<g class="st30">
				<g>
					<path class="st28" d="M486.4,418.3c1.4,1.3,3.4,2.1,4.3,3.7c0.6,1,0.8,2.2,1.3,3.2c0.6,1,1.9,1.8,2.9,1.3c1-0.6,1-2.1,1.3-3.2
						c0.3-1.8,1.8-3,3.2-3.8c1.6-0.6,3.4-0.8,5.1-0.5c0.8,0.2,1.6,0.5,2.6,0.3c0.8-0.2,1.6-1,1.4-1.8c-0.2-0.8-1.1-1.1-1.9-1.4
						c-1.8-0.6-3.4-1.8-4.5-3.2c-0.6-0.8-1.3-1.6-2.1-2.1c-0.8-0.5-2.1-0.6-2.7,0c-0.8,0.6-0.6,1.9-0.5,2.9c0.3,1,0.6,1.9,0.5,3
						c-0.3,1.8-2.6,2.6-4.3,2.1c-1.8-0.5-3-1.6-4.5-2.7s-3-2.1-4.8-1.8C484,415.7,484.9,417.1,486.4,418.3z"/>
				</g>
			</g>
			<g class="st30">
				<g>
					<path class="st28" d="M430.8,416.5c0.2,0,0.3,0,0.5,0.2c0.2,0.2,0.2,0.3,0.2,0.5c0,1.3-1.3,2.1-1.1,3.4
						c0.2,1.1,1.4,1.6,2.6,1.4c1.1-0.2,2.1-0.8,3-1.1c1-0.3,2.4-0.3,3,0.5c0.8,1,0.5,2.4,1.4,3c1,0.8,2.6,0,3.5-1
						c1-0.8,2.6-1.8,3.5-0.8c-0.8,2.1-2.2,4-4,5.4c-2.1,1.8-4.6,3-5.8,5.4c-0.2,0.3-0.3,0.6-0.5,0.8c-0.8,1-2.6,0-2.9-1.3
						c-0.3-1.3,0.3-2.6,0.6-3.7c0.5-1.3,0.6-2.7-0.3-3.7c-2.1-1-4.3,1.4-6.4,1c-1.3-0.3-2.1-1.6-2.2-2.9s0.3-2.6,1-3.8
						C427.5,418.3,428.9,416.5,430.8,416.5z"/>
				</g>
			</g>
			<g>
				<g>
					<path class="st31" d="M489.7,449.9c-0.2-0.2-0.2-0.3-0.2-0.5c0.2-0.6,0.5-1.3,0.8-1.9c0.8-1.6,1.8-3.2,2.6-4.8
						c1.4,1.9,2.7,4,4,6.2c0,0.2,0.2,0.2,0,0.3c0,0.2-0.2,0.2-0.3,0.2c-2.2,0.5-4.5,0.6-6.7,0.5
						C489.9,450.1,489.9,450.1,489.7,449.9z"/>
				</g>
			</g>
			<g>
				<g>
					<path class="st31" d="M496.3,450.9c0.5,0.5,1,1.1,1.1,1.8c0,0.2,0,0.3,0,0.5c-0.2,0.5-0.8,0.6-1.3,0.5
						c-0.5-0.3-0.6-0.8-0.5-1.3C495.8,451.9,496.1,451.4,496.3,450.9L496.3,450.9z"/>
				</g>
			</g>
			<g>
				<g>
					<path class="st31" d="M493.4,451.2c0.5,0.5,1,1.1,1.1,1.8c0,0.2,0,0.3,0,0.5c-0.2,0.5-0.8,0.6-1.3,0.5
						c-0.5-0.3-0.6-0.8-0.5-1.3C492.9,452.2,493.1,451.7,493.4,451.2L493.4,451.2z"/>
				</g>
			</g>
			<g>
				<g>
					<path class="st31" d="M490.5,451.2c0.3,0.6,0.5,1.3,0.5,2.1c0,0.2,0,0.3-0.2,0.5c-0.3,0.5-1,0.5-1.3,0c-0.3-0.3-0.3-1,0-1.4
						C489.7,452,490.2,451.7,490.5,451.2L490.5,451.2z"/>
				</g>
			</g>
			<g>
				<g>
					<path class="st32" d="M420.9,529.6c0-0.3,0.2-0.8,0.6-0.8c0.3,0,0.8,0.2,0.8,0.6c0.3,1.5,0.3,3.4,0.1,5.6
						c-0.5-0.3-1-0.6-1.5-0.8C421.1,532.4,421.1,530.8,420.9,529.6z"/>
				</g>
			</g>
		</g>
	</g>
</g>
<g>
	<path class="st17" d="M1156.2,1044.8h377.1V667.7L1156.2,1044.8z M1463.8,975.3H1324l139.8-139.8V975.3z"/>
	<g>
		<path class="st33" d="M1516.4,1025.1V648l-377.1,377.1H1516.4z M1446.9,955.6h-139.8l139.8-139.8V955.6z"/>
		<line class="st34" x1="1493.3" y1="1025.1" x2="1493.3" y2="994.3"/>
		<line class="st34" x1="1463.3" y1="1025.1" x2="1463.3" y2="1007.4"/>
		<line class="st34" x1="1433.3" y1="1025.1" x2="1433.3" y2="994.3"/>
		<line class="st34" x1="1403.3" y1="1025.1" x2="1403.3" y2="1007.4"/>
		<line class="st34" x1="1373.2" y1="1025.1" x2="1373.2" y2="994.3"/>
		<line class="st34" x1="1343.2" y1="1025.1" x2="1343.2" y2="1007.4"/>
		<line class="st34" x1="1313.2" y1="1025.1" x2="1313.2" y2="994.3"/>
		<line class="st34" x1="1283.2" y1="1025.1" x2="1283.2" y2="1007.4"/>
		<line class="st34" x1="1253.2" y1="1025.1" x2="1253.2" y2="994.3"/>
		<line class="st34" x1="1223.2" y1="1025.1" x2="1223.2" y2="1007.4"/>
		<line class="st34" x1="1193.2" y1="1025.1" x2="1193.2" y2="994.3"/>
	</g>
</g>
<g>
	<circle class="st3" cx="655.4" cy="442.2" r="13.3"/>
	<line class="st3" x1="664.9" y1="451.6" x2="677.3" y2="464"/>
</g>
<path class="st4" d="M970.9,924.8H643.3c-17.5,0-31.6-14.2-31.6-31.6V582.8c0-17.5,14.2-31.6,31.6-31.6h327.6
	c17.5,0,31.6,14.2,31.6,31.6v310.3C1002.5,910.6,988.4,924.8,970.9,924.8z"/>
<path class="st3" d="M970.9,924.8H643.3c-17.5,0-31.6-14.2-31.6-31.6V582.8c0-17.5,14.2-31.6,31.6-31.6h327.6
	c17.5,0,31.6,14.2,31.6,31.6v310.3C1002.5,910.6,988.4,924.8,970.9,924.8z"/>
<ellipse class="st28" cx="738.9" cy="607.1" rx="90.2" ry="1.5"/>
<ellipse class="st28" cx="781.1" cy="647.6" rx="132.3" ry="1.5"/>
<ellipse class="st28" cx="716.7" cy="688.1" rx="67.9" ry="1.5"/>
<g>
	<g>
		<rect x="680.6" y="767.7" class="st35" width="78.9" height="53"/>
		<g>
			<ellipse class="st36" cx="720" cy="794.2" rx="15.4" ry="15.4"/>
			<polygon class="st12" points="728.1,794.2 715.5,786.9 715.5,801.5 			"/>
		</g>
	</g>
	<g>
		<rect x="767.7" y="767.7" class="st37" width="78.9" height="53"/>
		<g>
			<ellipse class="st36" cx="807.1" cy="794.2" rx="15.4" ry="15.4"/>
			<polygon class="st12" points="815.1,794.2 802.5,786.9 802.5,801.5 			"/>
		</g>
	</g>
	<g>
		<rect x="854.7" y="767.7" class="st37" width="78.9" height="53"/>
		<g>
			<ellipse class="st36" cx="894.2" cy="794.2" rx="15.4" ry="15.4"/>
			<polygon class="st12" points="902.2,794.2 889.6,786.9 889.6,801.5 			"/>
		</g>
	</g>
</g>
<polyline class="st3" points="656.9,808.4 642.6,794.2 656.9,779.9 "/>
<polyline class="st3" points="958.2,808.4 972.4,794.2 958.2,779.9 "/>
<path class="st1" d="M1302.2,717.2l-172.2,0c-7.2,0-13-5.8-13-13V564.2c0-7.2,5.8-13,13-13l172.2,0c7.2,0,13,5.8,13,13l0,139.9
	C1315.2,711.3,1309.4,717.2,1302.2,717.2z"/>
<circle class="st2" cx="1254" cy="592.2" r="16.5"/>
<path class="st3" d="M1302.2,717.2l-172.2,0c-7.2,0-13-5.8-13-13V564.2c0-7.2,5.8-13,13-13l172.2,0c7.2,0,13,5.8,13,13l0,139.9
	C1315.2,711.3,1309.4,717.2,1302.2,717.2z"/>
<polyline class="st3" points="1116.9,659.7 1174.6,602 1233.3,660.6 1273.9,620 1315.2,661.2 "/>
<circle class="st3" cx="1248.8" cy="587.1" r="16.5"/>
<g>
	<path class="st5" d="M1527,308.2c-15.4-2-27.3-3.3-37.1-4.3c-2.5-1.2-7.1-3.3-13-6c-3.3-1.5-7-3.2-10.9-5
		c-12.3-5.6-27.2-12.3-40.4-17.9c-8.3-3.5-19.3-8.6-30.5-14c0.7-2,1.4-3.9,2-5.8c20.8-60,33-101.5,29.6-102.8
		c-1.4-0.5-5.5,6.2-11.5,18.7c0,0,0,0,0,0c-8.1,16.7-19.7,43.6-33.1,76.9c-0.8,1.9-1.5,3.7-2.3,5.6c-2.8-1.4-5.6-2.8-8.3-4.1
		c-16-7.9-28.4-14.3-28.4-14.3s-7,1.8-16.7,5.3c-3.4,1.2-7.2,2.7-11.1,4.3c-7.7,0.4-16.7,1.1-21,2.1c-3.8,0.9-8.9,2.4-14.6,4.4
		c-10,3.5-22,8.3-33.2,12.9l-0.1,0c-0.4,0.2-0.9,0.4-1.3,0.5c-6.7,2.8-13.1,5.5-18.4,7.8c0,0,0,0,0,0c-5,2.2-9.1,4-11.9,5.2
		l-3.9,1.7c0,0,0,0,0,0c0,0-0.1,0-0.1,0s0.3,1.5,1.2,3.6c1.9,4.9,6.7,13.4,16.6,15.9c3.8,0.9,11,0.5,19.5-0.8
		c3.7-0.5,7.6-1.2,11.6-2.1c-2.7,5.4-5.3,11-7.7,16.6c-1,2.3-2,4.6-2.9,6.8c0,0-1.3,2.9-3,6.8s-3.7,8.7-5,12.5
		c-0.2,0.6-0.5,1.3-0.7,2.1v0c-1.1,3.3-2.5,7.3-3.6,10.7c-0.9,2.7-1.7,5.1-2.1,6.2c-0.2,0.5-0.3,0.8-0.3,0.8s19.2,9.3,32.4-2.4
		c13.2-11.6,25.8-41.4,29.6-46.6c2-2.7,8.8-8,14.7-12.5c5.4-4,10-7.2,10-7.2l13.5,5.7c-4.9,0.8-8.9,2.2-12,4.3
		c-15.7,11.3-25.3,88.3-28.8,115.5c-0.1,1.1-0.3,2.1-0.4,3c-1.3,10.2-2.6,21.6-3.7,30.8c-0.3,2.5-0.6,4.8-0.8,6.9
		c-0.7,6.2-1.2,10.2-1.2,10.2s1.9,0.2,4.8-0.1c0,0,0,0,0,0c2.7-0.3,6.2-1.1,10.1-2.9c-4.7,14.3-8.5,26.7-11.4,36.8c0,0,0,0,0,0.1
		c-1.1,3.8-2.1,7.3-2.9,10.4c-0.4,1.6-0.8,3.1-1.2,4.6l-0.3-0.1c0,0-7.7,3.1-12.1,15c-0.5,1.4-1,3.1-1.5,5
		c-1.4,5.2-2.5,11.9-3.4,18.1c0,0,0,0,0,0c0,0,0,0,0,0.1c-1.5,10.1-2.3,19.1-2.3,19.1s0,0,0,0c0,0,0,0.1,0,0.1s13.4-14,20.6-26.7
		c0,0,0,0,0,0c1.2-2.2,2.3-4.3,3.1-6.4c5.2-13.9,2.8-21.5,2.8-21.5l-0.5-0.2c5.4-10.3,13.1-27.5,22.5-49.5
		c4.5,4.4,12.6,6.2,22.8,3.9c31.9-7,62.9-11.7,90.2-11.5c27.4,0.2,84.7,3.6,138.3,7.9c53.5,4.3,70.8-13.1,100.9-46.2
		c4-4.4,9.9-10.8,16-17.4v-114C1653,301.1,1590.9,316.5,1527,308.2z M1332.4,428.8C1332.4,428.8,1332.4,428.8,1332.4,428.8
		c0,0-0.1,0.1-0.1,0.1c0,0-0.1,0-0.1,0.1c2.5-6.3,5.1-12.8,7.8-19.5c7.2-18.1,14.7-37.6,22.4-58c22.6,9.2,59.1,22.8,86.1,26.4
		c1.9,0.3,3.8,0.5,5.7,0.6c0.6,1.5,0.4,10,0.2,14.3c-23.2,6.9-46.5,13.5-54.4,13.5C1367.8,406.1,1346.5,416.6,1332.4,428.8z"/>
	<g>
		<g>
			<path class="st38" d="M1350.9,285.2c0,0-45.1-14.3-67.5-6.4c-19.2,6.7-51.3,13.2-60.9,10.8c-14.2-3.5-17.8-19.5-17.8-19.5
				s61.7-27.8,83.6-32.8c8.5-2,34.9-2.7,34.9-2.7L1350.9,285.2z"/>
			<path class="st38" d="M1486,295.3c0,0-37.3-17.6-66.4-29.9c-27-11.4-82.4-39.8-82.4-39.8s-49.5,12.8-68.5,36.3
				c-19.1,23.5-40.4,87.5-40.4,87.5s19.2,9.3,32.4-2.4c13.2-11.7,25.8-41.4,29.5-46.6c3.7-5.1,24.8-19.7,24.8-19.7l90.7,38.3
				L1486,295.3z"/>
			<path class="st38" d="M1684.2,279.6V389c-8.1,8.7-16.8,18.1-22.1,23.9c-30.1,33-47.3,50.5-100.9,46.2
				c-53.5-4.3-110.9-7.7-138.3-7.9c-27.4-0.2-58.4,4.5-90.2,11.5c-10.2,2.3-18.4,0.4-22.8-4c0.6-1.5,1.3-3,1.9-4.5
				c0.1-0.3,0.2-0.6,0.4-0.9v0c0.2-0.5,0.4-0.9,0.6-1.4c1.1-2.7,2.3-5.5,3.5-8.3c0.5-1.2,1-2.4,1.5-3.7c0-0.1,0.1-0.2,0.1-0.3
				c0,0,0,0,0,0c2.7-6.5,5.4-13.3,8.3-20.4v0l0,0c0.1-0.1,0.2-0.1,0.2-0.2c3.9-3.4,8.4-6.7,13.6-9.6c13.2-7.6,30.8-13,53.9-12.9
				c7.9,0,31.3-6.6,54.4-13.5c0.1-1.4,0.1-3.3,0.2-5.2c0.1-3.9,0-8.1-0.4-9c-27.3-2.3-67.6-17.2-91.8-27.1c-1.3-0.5-2.5-1-3.7-1.5
				c-3.5,13.5-11.6,33-19.5,42.6v0c-1.5,10.1-4.6,20.2-8.4,30.7c-1.3,3.6-2.6,7.2-4,10.9c-4,4.2-7.3,8.4-9.9,12.3
				c-2.7,3.9-4.1,7.6-4.5,10.9c-3.2,3-6.5,5-9.5,6.4c0,0,0,0,0,0c-2.8,1.3-5.5,2.1-7.7,2.5c-4.3,0.8-7.2,0.5-7.2,0.5l0.3-2.2
				c0.8-6.8,3.2-28.1,5.4-45.6c2.7-21.2,10.6-88.2,23.6-111.7c1.7-3.1,3.6-5.5,5.5-6.9c3.1-2.2,7.1-3.6,12-4.3
				c7.8-1.3,17.6-1,28.7-0.2c5.9,0.5,12.3,1.1,18.9,1.8c14.7,1.5,30.7,3.2,46.8,3.7c17.6,0.5,28.2,0.3,43.2,1.2
				c5.3,0.3,11,0.7,17.8,1.4h0l0,0c9.8,0.9,21.7,2.3,37.1,4.3C1589.3,307.4,1655.6,289.1,1684.2,279.6z"/>
			<path class="st39" d="M1281.7,457.1c0,0,10.9-4.5,13.5-22.6c2.6-18.2,2.6-18.2,2.6-18.2l-11.2-0.9L1281.7,457.1z"/>
			<path class="st39" d="M1228.3,349.3c0,0,11.6-1.6,18.2-18.7c6.7-17.1,6.7-17.1,6.7-17.1l-10.1-3.2c0,0-5.4,11.6-8,19.3
				C1232.6,336.5,1228.3,349.3,1228.3,349.3z"/>
			<path class="st39" d="M1204.8,270c0,0,6,7.8,23.6,2.3c13.3-4.2,17-6.9,17-6.9l-4.8-10.7L1204.8,270z"/>
			<path class="st40" d="M1352.6,340.2c0,0-4-6.3-8.7-14.7c-4.7-8.4-6.7-15.9-6.7-15.9s10.1,0.7,15.3,11.9
				C1356.5,329.9,1352.6,340.2,1352.6,340.2z"/>
			<path class="st40" d="M1333,382.8c0,0-2.5-1-10.4-5.4c-9-5-11.3-8.5-11.3-8.5s7.7,1.7,12.1,4C1331,376.9,1333,382.8,1333,382.8z"
				/>
			<path class="st39" d="M1314.3,457.4c-8.1-9.3,5.6-22.8,19.8-27.8c14.2-5,20.6-6.2,20.6-6.2s6.9,23.2,4.7,27.6
				C1347.1,456,1320.6,464.6,1314.3,457.4z"/>
		</g>
		<g>
			<path class="st26" d="M1359,334.3c-38.9,104-74.5,186.8-79.3,185c-4.9-1.8,22.8-87.6,61.7-191.6c38.9-104,74.5-186.8,79.3-185
				S1398,230.3,1359,334.3z"/>
			<path class="st38" d="M1326.4,419.1c-5.8,14.4-11.5,27.8-16.5,39.7c-2.8-2.8-4.2-6.6-3.7-11.1c0.4-3.3,1.8-7,4.5-10.9
				c2.7-3.9,5.9-8.1,9.9-12.2C1322.3,422.7,1324.4,420.8,1326.4,419.1z"/>
			<path class="st41" d="M1327.9,414.8c-0.6,1.5-1.2,3-1.8,4.5c-2,1.7-3.8,3.4-5.5,5.2c-4,4.2-7.3,8.3-9.9,12.2
				c-2.7,3.9-4.1,7.6-4.5,10.9c-0.5,4.5,0.8,8.3,3.7,11.1c-16.1,38.1-27.6,61.5-30.2,60.6c-2.6-1,4.1-26.1,16.9-65.2
				c4.4-13.5,9.6-28.8,15.4-45.2l12.7,4.7L1327.9,414.8z"/>
			<path class="st26" d="M1280.9,505.8l7,2.6c0,0,2.4,7.7-2.8,21.5c-5.2,13.9-23.7,33-23.7,33s2.8-30.3,7.3-42.2
				C1273.2,508.9,1280.9,505.8,1280.9,505.8z"/>
			<path class="st2" d="M1282.1,536.3c-7.2,12.7-20.6,26.7-20.6,26.7s2.2-23.7,5.8-37.4c0.4,0.2,0.9,0.3,1.3,0.5
				c1.1,0.4,2.2,1,2.8,2c1.1,2-0.6,4.8,0.8,6.6c1.2,1.6,3.6,1.1,5.6,0.9C1279.3,535.4,1280.7,535.7,1282.1,536.3z"/>
		</g>
		<path class="st39" d="M1314.3,457.4c-8.1-9.3,5.6-22.8,19.8-27.8c14.2-5,20.6-6.2,20.6-6.2s6.9,23.2,4.7,27.6
			C1347.1,456,1320.6,464.6,1314.3,457.4z"/>
	</g>
</g>
<polyline class="st7" points="1684.2,238 1684.2,279.6 1684.2,291.2 1684.2,389 1684.2,405.2 1684.2,441.8 "/>
</svg>
