<?xml version="1.0" encoding="utf-8"?>
<!-- Generator: Adobe Illustrator 24.3.0, SVG Export Plug-In . SVG Version: 6.00 Build 0)  -->
<svg version="1.1" id="Слой_1" xmlns="http://www.w3.org/2000/svg" xmlns:xlink="http://www.w3.org/1999/xlink" x="0px" y="0px"
	 viewBox="0 0 671.1 399.7" style="enable-background:new 0 0 671.1 399.7;" xml:space="preserve">
<style type="text/css">
	.st0{display:none;}
	.st1{display:inline;fill:#9AD9FC;}
	.st2{display:none;fill:#70BEF2;}
	.st3{display:inline;}
	.st4{opacity:0.47;clip-path:url(#SVGID_2_);}
	.st5{fill:none;stroke:#2A83B5;stroke-width:3;}
	.st6{fill:none;stroke:#3583AF;stroke-width:3;}
	.st7{fill:none;stroke:#2F8ABC;stroke-width:3;}
	.st8{fill:none;stroke:#2883B5;stroke-width:3;}
	.st9{fill:none;stroke:#2B82B2;stroke-width:3;}
	.st10{fill:none;stroke:#3788B5;stroke-width:3;}
	.st11{fill:none;stroke:#2C80AF;stroke-width:3;}
	.st12{fill:none;stroke:#2678A5;stroke-width:3;}
	.st13{fill:none;stroke:#3880A8;stroke-width:3;}
	.st14{fill:none;stroke:#398BB7;stroke-width:3;}
	.st15{fill:none;stroke:#3D8BB7;stroke-width:3;}
	.st16{fill:none;stroke:#3182AF;stroke-width:3;}
	.st17{fill:#4090BC;}
	.st18{display:none;fill:#B4DAEF;}
	.st19{fill:none;stroke:#B4DAEF;stroke-width:2;stroke-linecap:round;stroke-linejoin:round;stroke-miterlimit:10;}
	.st20{fill:#FBB040;}
	.st21{fill:#FFFFFF;stroke:#B4DAEF;stroke-width:2;stroke-linecap:round;stroke-linejoin:round;stroke-miterlimit:10;}
	.st22{fill:#B4DAEF;}
	.st23{fill:#70BEF2;}
	.st24{fill:#002050;}
	.st25{fill:#FFFFFF;}
	.st26{fill:none;stroke:#005EB8;stroke-width:2;stroke-miterlimit:10;}
	.st27{fill:#005EB8;}
	.st28{fill:#F9C6B7;}
	.st29{fill:none;stroke:#231F20;stroke-linecap:round;stroke-linejoin:round;stroke-miterlimit:10;}
	.st30{fill:#FDFEFF;}
	.st31{fill:none;stroke:#FFFFFF;stroke-miterlimit:10;}
	.st32{fill:#191717;}
	.st33{fill:none;stroke:#191717;stroke-linecap:round;stroke-linejoin:round;stroke-miterlimit:10;}
	.st34{fill:#231F20;}
	.st35{fill:#37C6D0;}
	.st36{fill:none;stroke:#FFFFFF;stroke-width:2;stroke-miterlimit:10;}
</style>
<g class="st0">
	<path class="st1" d="M173.2,169.4h61.5v7.2h-61.5V169.4z"/>
	<path class="st1" d="M173.2,183.9h61.5v7.3h-61.5V183.9z"/>
	<path class="st1" d="M198.6,154.9h36.2v7.2h-36.2V154.9L198.6,154.9z"/>
	<path class="st1" d="M184.1,150.9h7.2v7.3h-7.2V150.9z"/>
</g>
<g class="st0">
	<path class="st1" d="M262.8,201h61.5v7.2h-61.5V201z"/>
	<path class="st1" d="M262.8,215.5h61.5v7.3h-61.5V215.5z"/>
	<path class="st1" d="M288.2,186.5h36.2v7.2h-36.2V186.5z"/>
	<path class="st1" d="M273.7,182.5h7.2v7.3h-7.2V182.5z"/>
</g>
<path class="st2" d="M468.7,135.1c0,0,0.9,5.6-3.1,9.5c0,0-0.6,0.2-0.2-0.4c0.4-0.7,3.4-3.5,2.9-9
	C468.4,135.3,468.4,134.9,468.7,135.1z"/>
<g class="st0">
	<g class="st3">
		<g>
			<g>
				<g>
					<g>
						<defs>
							<rect id="SVGID_1_" x="-826.9" y="-2.1" width="1494.7" height="401.3"/>
						</defs>
						<clipPath id="SVGID_2_">
							<use xlink:href="#SVGID_1_"  style="overflow:visible;"/>
						</clipPath>
						<g class="st4">
							<g>
								<line class="st5" x1="369.5" y1="8.8" x2="412.1" y2="-15.8"/>
								<polyline class="st5" points="369.5,-40.4 327,-65 284.5,-40.4 284.5,8.8 327,33.4 								"/>
								<line class="st5" x1="369.5" y1="8.8" x2="369.5" y2="-40.3"/>
								<line class="st5" x1="327" y1="-15.8" x2="284.5" y2="8.8"/>
								<polyline class="st5" points="327,-65 327,-15.8 327,-15.8 327,33.4 								"/>
								<polyline class="st5" points="412.1,-15.8 412.1,-15.8 412.1,-15.6 412.1,33.4 								"/>
								<line class="st5" x1="497.1" y1="-15.8" x2="454.6" y2="8.8"/>
								<polyline class="st5" points="412.1,-15.8 412.2,-15.7 454.6,8.8 								"/>
								<polyline class="st5" points="454.6,-40.4 454.6,-40.2 454.6,8.8 454.6,58 								"/>
							</g>
							<g>
								<polyline class="st6" points="199.4,107.3 156.9,82.8 156.9,82.8 156.9,82.8 								"/>
								<line class="st6" x1="156.9" y1="181.1" x2="199.4" y2="156.5"/>
								<polyline class="st6" points="199.4,107.3 199.3,107.4 156.9,131.9 								"/>
								<polyline class="st6" points="156.9,131.9 114.3,107.3 71.8,131.9 71.8,181.1 114.3,205.7 								"/>
								<line class="st6" x1="156.9" y1="181.1" x2="156.9" y2="132"/>
								<line class="st6" x1="114.3" y1="156.5" x2="71.8" y2="181.1"/>
								<line class="st6" x1="156.9" y1="131.9" x2="114.3" y2="156.5"/>
								<line class="st6" x1="114.3" y1="58.1" x2="71.8" y2="82.8"/>
								<polyline class="st6" points="71.8,131.9 114.3,156.5 114.3,156.5 								"/>
								<polyline class="st6" points="114.3,107.3 114.3,156.5 114.3,156.5 114.3,205.7 								"/>
								<line class="st6" x1="241.9" y1="82.8" x2="284.5" y2="107.3"/>
								<polyline class="st6" points="241.9,33.6 241.9,33.6 241.9,82.8 241.9,131.9 								"/>
								<line class="st6" x1="327" y1="82.8" x2="327" y2="33.5"/>
								<polyline class="st6" points="327,33.5 284.5,58.1 241.9,82.8 								"/>
								<polyline class="st6" points="241.9,33.5 242,33.5 284.5,58.1 327,82.8 								"/>
								<polyline class="st6" points="156.9,82.9 156.9,131.9 156.9,131.9 156.9,132 								"/>
								<polyline class="st6" points="156.9,82.8 156.9,82.8 156.9,33.6 156.9,33.5 114.3,9 								"/>
								<polyline class="st6" points="71.8,33.5 71.8,82.8 71.8,82.8 114.3,107.3 								"/>
								<line class="st6" x1="114.3" y1="58.1" x2="156.9" y2="82.8"/>
								<line class="st6" x1="114.3" y1="9" x2="114.3" y2="58.1"/>
								<polyline class="st6" points="284.5,107.5 241.9,132.1 199.6,156.6 199.4,156.7 								"/>
								<line class="st6" x1="199.4" y1="107.5" x2="241.9" y2="132.1"/>
								<polyline class="st6" points="199.4,156.5 199.4,156.5 199.4,156.7 199.4,205.7 								"/>
								<line class="st6" x1="284.5" y1="156.5" x2="241.9" y2="181.1"/>
								<polyline class="st6" points="199.4,156.5 199.6,156.6 241.9,181.1 								"/>
								<polyline class="st6" points="241.9,131.9 241.9,132.1 241.9,181.1 241.9,230.3 								"/>
								<polyline class="st6" points="199.4,58.1 156.9,82.8 156.9,82.8 								"/>
								<line class="st6" x1="199.4" y1="58.1" x2="199.4" y2="107.3"/>
								<line class="st6" x1="199.4" y1="58.1" x2="241.9" y2="33.6"/>
								<polyline class="st6" points="241.9,-15.6 199.4,9 156.9,33.6 								"/>
								<line class="st6" x1="199.4" y1="9" x2="241.9" y2="33.6"/>
								<polyline class="st6" points="199.4,-40.2 199.4,9 199.4,58.1 								"/>
							</g>
							<g>
								<polyline class="st6" points="284.5,-89.5 284.5,-89.4 284.5,-40.4 284.5,8.8 								"/>
							</g>
							<g>
								<polyline class="st7" points="582.2,279.8 539.7,255.3 539.7,255.3 539.7,255.3 								"/>
								<line class="st7" x1="539.7" y1="353.6" x2="582.2" y2="329.1"/>
								<polyline class="st7" points="582.2,279.8 582.1,279.9 539.7,304.4 								"/>
								<polyline class="st7" points="539.7,304.4 497.1,279.8 454.6,304.4 454.6,353.6 497.1,378.2 								"/>
								<line class="st7" x1="539.7" y1="353.6" x2="539.7" y2="304.5"/>
								<line class="st7" x1="497.1" y1="329" x2="454.6" y2="353.6"/>
								<line class="st7" x1="539.7" y1="304.4" x2="497.1" y2="329"/>
								<line class="st7" x1="497.1" y1="230.7" x2="454.6" y2="255.3"/>
								<polyline class="st7" points="454.6,304.4 497.1,329 497.1,329 								"/>
								<polyline class="st7" points="497.1,279.8 497.1,329 497.1,329 497.1,378.2 								"/>
								<line class="st7" x1="624.7" y1="255.3" x2="667.3" y2="279.8"/>
								<polyline class="st7" points="624.7,206.1 624.7,206.1 624.7,255.3 624.7,304.4 								"/>
								<polyline class="st7" points="709.8,206.1 667.3,230.7 624.7,255.3 								"/>
								<polyline class="st7" points="624.7,206.1 624.8,206.1 667.3,230.7 709.8,255.3 								"/>
								<polyline class="st7" points="539.7,255.4 539.7,304.4 539.7,304.4 539.7,304.5 								"/>
								<polyline class="st7" points="539.7,255.3 539.7,255.3 539.7,206.1 539.7,206.1 497.1,181.5 								"/>
								<polyline class="st7" points="454.6,206.1 454.6,255.3 454.6,255.3 497.1,279.8 								"/>
								<line class="st7" x1="497.1" y1="230.7" x2="539.7" y2="255.3"/>
								<line class="st7" x1="497.1" y1="181.5" x2="497.1" y2="230.7"/>
								<polyline class="st7" points="667.3,280 624.7,304.6 582.4,329.1 582.2,329.2 								"/>
								<line class="st7" x1="582.2" y1="280" x2="624.7" y2="304.6"/>
								<polyline class="st7" points="582.2,329 582.2,329.1 582.2,329.2 582.2,378.2 								"/>
								<line class="st7" x1="667.3" y1="329" x2="624.7" y2="353.6"/>
								<polyline class="st7" points="582.2,329 582.4,329.1 624.7,353.6 								"/>
								<polyline class="st7" points="624.7,304.4 624.7,304.6 624.7,353.6 624.7,402.8 								"/>
								<polyline class="st7" points="582.2,230.7 539.7,255.3 539.7,255.3 								"/>
								<line class="st7" x1="582.2" y1="230.7" x2="582.2" y2="279.8"/>
								<line class="st7" x1="582.2" y1="230.7" x2="624.7" y2="206.1"/>
								<polyline class="st7" points="624.7,156.9 582.2,132.3 539.7,156.9 								"/>
								<polyline class="st7" points="624.7,156.9 582.2,181.5 539.7,206.1 								"/>
								<line class="st7" x1="582.2" y1="181.5" x2="624.7" y2="206.1"/>
								<polyline class="st7" points="582.2,132.3 582.2,181.5 582.2,230.7 								"/>
							</g>
							<g>
								<polyline class="st8" points="539.6,156.3 497.1,131.8 497.1,131.7 497.1,131.7 								"/>
								<line class="st8" x1="497.1" y1="230.1" x2="539.6" y2="205.5"/>
								<polyline class="st8" points="539.6,156.3 539.6,156.3 497.1,180.9 								"/>
								<polyline class="st8" points="497.1,180.9 454.6,156.3 412,180.9 412,230.1 454.6,254.6 								"/>
								<line class="st8" x1="497.1" y1="230.1" x2="497.1" y2="181"/>
								<line class="st8" x1="454.6" y1="205.5" x2="412" y2="230.1"/>
								<line class="st8" x1="497.1" y1="180.9" x2="454.6" y2="205.5"/>
								<line class="st8" x1="454.6" y1="107.1" x2="412" y2="131.7"/>
								<polyline class="st8" points="412,180.9 454.6,205.5 454.6,205.5 								"/>
								<polyline class="st8" points="454.6,156.3 454.6,205.5 454.6,205.5 454.6,254.6 								"/>
								<line class="st8" x1="582.2" y1="131.7" x2="624.7" y2="156.3"/>
								<polyline class="st8" points="582.2,82.6 582.2,82.6 582.2,131.7 582.2,180.9 								"/>
								<line class="st8" x1="667.2" y1="131.7" x2="667.2" y2="82.5"/>
								<polyline class="st8" points="667.2,82.5 624.7,107.1 582.2,131.7 								"/>
								<polyline class="st8" points="582.2,82.5 582.2,82.5 624.7,107.1 667.2,131.7 								"/>
								<polyline class="st8" points="497.1,131.8 497.1,180.9 497.1,180.9 497.1,181 								"/>
								<polyline class="st8" points="497.1,131.7 497.1,131.7 497.1,82.6 497.1,82.5 454.6,58 								"/>
								<polyline class="st8" points="412,82.5 412,131.7 412,131.7 454.6,156.3 								"/>
								<line class="st8" x1="454.6" y1="107.1" x2="497.1" y2="131.7"/>
								<line class="st8" x1="454.6" y1="58" x2="454.6" y2="107.1"/>
								<polyline class="st8" points="624.7,156.5 582.2,181.1 539.8,205.6 539.6,205.7 								"/>
								<line class="st8" x1="539.6" y1="156.5" x2="582.2" y2="181.1"/>
								<polyline class="st8" points="539.6,205.5 539.6,205.5 539.6,205.7 539.6,254.7 								"/>
								<line class="st8" x1="624.7" y1="205.5" x2="582.2" y2="230.1"/>
								<polyline class="st8" points="539.6,205.5 539.8,205.6 582.2,230.1 								"/>
								<polyline class="st8" points="582.2,180.9 582.2,181.1 582.2,230.1 582.2,279.2 								"/>
								<polyline class="st8" points="539.6,107.1 497.1,131.7 497.1,131.7 								"/>
								<line class="st8" x1="539.6" y1="107.1" x2="539.6" y2="156.3"/>
								<line class="st8" x1="539.6" y1="107.1" x2="582.2" y2="82.6"/>
								<polyline class="st8" points="582.2,33.4 539.6,8.8 497.1,33.4 								"/>
								<polyline class="st8" points="582.2,33.4 539.6,58 497.1,82.6 								"/>
								<line class="st8" x1="539.6" y1="58" x2="582.2" y2="82.6"/>
								<polyline class="st8" points="539.6,8.8 539.6,58 539.6,107.1 								"/>
							</g>
							<g>
								<polyline class="st9" points="412.1,378.4 412.1,378.4 412.1,427.6 412.1,476.7 								"/>
								<line class="st9" x1="497.1" y1="427.6" x2="497.1" y2="378.3"/>
								<polyline class="st9" points="497.1,378.3 454.6,403 412.1,427.6 								"/>
								<polyline class="st9" points="412.1,378.3 412.1,378.4 454.6,403 497.1,427.6 								"/>
								<polyline class="st9" points="327,427.6 327,427.6 327,378.4 327,378.3 284.5,353.8 								"/>
								<polyline class="st9" points="241.9,378.3 241.9,427.6 241.9,427.6 284.5,452.1 								"/>
								<line class="st9" x1="284.5" y1="353.8" x2="284.5" y2="403"/>
								<line class="st9" x1="369.5" y1="403" x2="412.1" y2="378.4"/>
								<polyline class="st9" points="412.1,329.2 369.5,304.6 327,329.2 								"/>
								<polyline class="st9" points="412.1,329.2 369.5,353.8 327,378.4 								"/>
								<line class="st9" x1="369.5" y1="353.8" x2="412.1" y2="378.4"/>
								<polyline class="st9" points="369.5,304.6 369.5,353.8 369.5,403 								"/>
							</g>
							<g>
								<polyline class="st10" points="412.1,230.7 369.6,206.1 369.5,206.1 369.5,206.1 								"/>
								<line class="st10" x1="369.5" y1="304.4" x2="412.1" y2="279.9"/>
								<polyline class="st10" points="412.1,230.7 412,230.7 369.5,255.3 								"/>
								<polyline class="st10" points="369.5,255.2 327,230.7 284.5,255.2 284.5,304.4 327,329 								"/>
								<line class="st10" x1="369.5" y1="304.4" x2="369.5" y2="255.4"/>
								<line class="st10" x1="327" y1="279.8" x2="284.5" y2="304.4"/>
								<line class="st10" x1="369.5" y1="255.2" x2="327" y2="279.8"/>
								<line class="st10" x1="327" y1="181.5" x2="284.5" y2="206.1"/>
								<polyline class="st10" points="284.5,255.2 327,279.8 327,279.8 								"/>
								<polyline class="st10" points="327,230.7 327,279.8 327,279.8 327,329 								"/>
								<line class="st10" x1="454.6" y1="206.1" x2="497.1" y2="230.7"/>
								<polyline class="st10" points="454.6,156.9 454.6,156.9 454.6,206.1 454.6,255.3 								"/>
								<line class="st10" x1="539.7" y1="206.1" x2="539.7" y2="156.9"/>
								<polyline class="st10" points="539.7,156.9 497.1,181.5 454.6,206.1 								"/>
								<polyline class="st10" points="454.6,156.9 454.6,156.9 497.1,181.5 								"/>
								<polyline class="st10" points="369.5,206.2 369.5,255.2 369.5,255.3 369.5,255.4 								"/>
								<polyline class="st10" points="369.5,206.1 369.5,206.1 369.5,156.9 369.5,156.9 327,132.3 								"/>
								<polyline class="st10" points="284.5,156.9 284.5,206.1 284.5,206.1 327,230.7 								"/>
								<line class="st10" x1="327" y1="181.5" x2="369.5" y2="206.1"/>
								<line class="st10" x1="327" y1="132.3" x2="327" y2="181.5"/>
								<polyline class="st10" points="454.6,255.4 412.2,279.9 412.1,280 								"/>
								<line class="st10" x1="412.1" y1="230.8" x2="454.6" y2="255.4"/>
								<polyline class="st10" points="412.1,279.8 412.1,279.9 412.1,280 412.1,329.1 								"/>
								<polyline class="st10" points="412.1,279.8 412.2,279.9 454.6,304.4 								"/>
								<polyline class="st10" points="454.6,255.3 454.6,255.4 454.6,304.4 454.6,353.6 								"/>
								<polyline class="st10" points="412.1,181.5 369.5,206.1 369.5,206.1 								"/>
								<line class="st10" x1="412.1" y1="181.5" x2="412.1" y2="230.7"/>
								<line class="st10" x1="412.1" y1="181.5" x2="454.6" y2="156.9"/>
								<polyline class="st10" points="454.6,107.7 412.1,83.2 369.5,107.7 								"/>
								<polyline class="st10" points="454.6,107.7 412.1,132.3 369.5,156.9 								"/>
								<line class="st10" x1="412.1" y1="132.3" x2="454.6" y2="156.9"/>
								<polyline class="st10" points="412.1,83.2 412.1,132.3 412.1,181.5 								"/>
							</g>
							<g>
								<polyline class="st11" points="369.5,9.4 327,-15.1 327,-15.2 327,-15.2 								"/>
								<line class="st11" x1="327" y1="83.2" x2="369.5" y2="58.6"/>
								<polyline class="st11" points="369.5,9.4 369.4,9.4 327,34 								"/>
								<polyline class="st11" points="327,33.9 284.4,9.4 241.9,33.9 241.9,83.2 284.4,107.7 								"/>
								<line class="st11" x1="327" y1="83.2" x2="327" y2="34.1"/>
								<line class="st11" x1="284.4" y1="58.6" x2="241.9" y2="83.2"/>
								<line class="st11" x1="327" y1="33.9" x2="284.4" y2="58.6"/>
								<polyline class="st11" points="241.9,33.9 284.4,58.6 284.4,58.6 								"/>
								<polyline class="st11" points="284.4,9.4 284.4,58.6 284.4,58.6 284.4,107.7 								"/>
								<line class="st11" x1="412" y1="-15.2" x2="454.6" y2="9.4"/>
								<polyline class="st11" points="412,-64.3 412,-64.3 412,-15.2 412,34 								"/>
								<polyline class="st11" points="327,-15.1 327,33.9 327,34 327,34.1 								"/>
								<polyline class="st11" points="241.9,-64.4 241.9,-15.2 241.9,-15.2 284.4,9.4 								"/>
								<polyline class="st11" points="454.6,9.5 412,34.1 369.7,58.7 369.5,58.8 								"/>
								<line class="st11" x1="369.5" y1="9.5" x2="412" y2="34.1"/>
								<polyline class="st11" points="369.5,58.6 369.5,58.6 369.5,58.8 369.5,107.8 								"/>
								<line class="st11" x1="454.6" y1="58.6" x2="412" y2="83.2"/>
								<polyline class="st11" points="369.5,58.6 369.7,58.7 412,83.2 								"/>
								<polyline class="st11" points="412,34 412,34.1 412,83.2 412,132.3 								"/>
								<line class="st11" x1="369.5" y1="-39.8" x2="369.5" y2="9.4"/>
							</g>
							<g>
								<polyline class="st12" points="156.8,181.7 114.3,157.1 114.3,157.1 114.3,157.1 								"/>
								<line class="st12" x1="114.3" y1="255.5" x2="156.8" y2="230.9"/>
								<polyline class="st12" points="156.8,181.7 156.8,181.7 114.3,206.3 								"/>
								<polyline class="st12" points="114.3,206.2 71.8,181.7 29.2,206.2 29.2,255.5 71.8,280 								"/>
								<line class="st12" x1="114.3" y1="255.5" x2="114.3" y2="206.4"/>
								<line class="st12" x1="71.8" y1="230.9" x2="29.2" y2="255.5"/>
								<line class="st12" x1="114.3" y1="206.2" x2="71.8" y2="230.9"/>
								<line class="st12" x1="71.8" y1="132.5" x2="29.2" y2="157.1"/>
								<polyline class="st12" points="29.2,206.2 71.8,230.9 71.8,230.9 								"/>
								<polyline class="st12" points="71.8,181.7 71.8,230.9 71.8,230.9 71.8,280 								"/>
								<line class="st12" x1="199.4" y1="157.1" x2="241.9" y2="181.7"/>
								<polyline class="st12" points="199.4,108 199.4,108 199.4,157.1 199.4,206.3 								"/>
								<line class="st12" x1="284.4" y1="157.1" x2="284.4" y2="107.9"/>
								<polyline class="st12" points="284.4,107.9 241.9,132.5 199.4,157.1 								"/>
								<polyline class="st12" points="199.4,107.9 199.4,107.9 241.9,132.5 284.4,157.1 								"/>
								<polyline class="st12" points="114.3,157.2 114.3,206.2 114.3,206.3 114.3,206.4 								"/>
								<polyline class="st12" points="114.3,157.1 114.3,157.1 114.3,108 114.3,107.9 71.8,83.3 								"/>
								<polyline class="st12" points="29.2,107.9 29.2,157.1 29.2,157.1 71.8,181.7 								"/>
								<line class="st12" x1="71.8" y1="132.5" x2="114.3" y2="157.1"/>
								<line class="st12" x1="71.8" y1="83.3" x2="71.8" y2="132.5"/>
								<polyline class="st12" points="241.9,181.8 199.4,206.4 157,231 156.8,231.1 								"/>
								<line class="st12" x1="156.8" y1="181.8" x2="199.4" y2="206.4"/>
								<polyline class="st12" points="156.8,230.9 156.8,230.9 156.8,231.1 156.8,280.1 								"/>
								<line class="st12" x1="241.9" y1="230.9" x2="199.4" y2="255.5"/>
								<polyline class="st12" points="156.8,230.9 157,231 199.4,255.5 								"/>
								<polyline class="st12" points="199.4,206.3 199.4,206.4 199.4,255.5 199.4,304.6 								"/>
								<polyline class="st12" points="156.8,132.5 114.3,157.1 114.3,157.1 								"/>
								<line class="st12" x1="156.8" y1="132.5" x2="156.8" y2="181.7"/>
								<line class="st12" x1="156.8" y1="132.5" x2="199.4" y2="108"/>
								<polyline class="st12" points="199.4,58.7 156.8,34.2 114.3,58.7 								"/>
								<polyline class="st12" points="199.4,58.7 156.8,83.3 114.3,108 								"/>
								<line class="st12" x1="156.8" y1="83.3" x2="199.4" y2="108"/>
								<polyline class="st12" points="156.8,34.2 156.8,83.3 156.8,132.5 								"/>
							</g>
							<g>
								<line class="st13" x1="156.8" y1="34" x2="199.4" y2="9.4"/>
								<polyline class="st13" points="156.8,-15.2 114.3,-39.8 71.8,-15.2 71.8,34 114.3,58.6 								"/>
								<line class="st13" x1="156.8" y1="34" x2="156.8" y2="-15.1"/>
								<line class="st13" x1="114.3" y1="9.4" x2="71.8" y2="34"/>
								<line class="st13" x1="156.8" y1="-15.2" x2="114.3" y2="9.4"/>
								<polyline class="st13" points="71.8,-15.2 114.3,9.4 114.3,9.4 								"/>
								<polyline class="st13" points="114.3,-39.8 114.3,9.4 114.3,9.4 114.3,58.6 								"/>
								<polyline class="st13" points="241.9,-15 199.5,9.5 199.4,9.6 								"/>
								<polyline class="st13" points="199.4,9.4 199.4,9.4 199.4,9.6 199.4,58.6 								"/>
								<polyline class="st13" points="199.4,9.4 199.5,9.5 241.9,34 								"/>
								<polyline class="st13" points="241.9,-15.2 241.9,-15 241.9,34 241.9,83.2 								"/>
							</g>
							<g>
								<polyline class="st14" points="539.6,354.2 497.1,329.7 497.1,329.6 497.1,329.6 								"/>
								<polyline class="st14" points="539.6,354.2 539.6,354.2 497.1,378.8 								"/>
								<polyline class="st14" points="497.1,378.8 454.6,354.2 412,378.8 412,428 454.6,452.5 								"/>
								<line class="st14" x1="497.1" y1="428" x2="497.1" y2="378.9"/>
								<line class="st14" x1="497.1" y1="378.8" x2="454.6" y2="403.4"/>
								<line class="st14" x1="454.6" y1="305" x2="412" y2="329.6"/>
								<polyline class="st14" points="412,378.8 454.6,403.4 454.6,403.4 								"/>
								<polyline class="st14" points="454.6,354.2 454.6,403.4 454.6,403.4 454.6,452.5 								"/>
								<line class="st14" x1="582.2" y1="329.6" x2="624.7" y2="354.2"/>
								<polyline class="st14" points="582.2,280.5 582.2,280.5 582.2,329.6 582.2,378.8 								"/>
								<line class="st14" x1="667.2" y1="329.6" x2="667.2" y2="280.4"/>
								<polyline class="st14" points="667.2,280.4 624.7,305 582.2,329.6 								"/>
								<polyline class="st14" points="582.2,280.4 582.2,280.4 624.7,305 667.2,329.6 								"/>
								<polyline class="st14" points="497.1,329.7 497.1,378.8 497.1,378.8 497.1,378.9 								"/>
								<polyline class="st14" points="497.1,329.6 497.1,329.6 497.1,280.5 497.1,280.4 454.6,255.9 								"/>
								<polyline class="st14" points="412,280.4 412,329.6 412,329.6 454.6,354.2 								"/>
								<line class="st14" x1="454.6" y1="305" x2="497.1" y2="329.6"/>
								<line class="st14" x1="454.6" y1="255.9" x2="454.6" y2="305"/>
								<polyline class="st14" points="624.7,354.4 582.2,379 539.8,403.5 539.6,403.6 								"/>
								<line class="st14" x1="539.6" y1="354.4" x2="582.2" y2="379"/>
								<polyline class="st14" points="582.2,378.8 582.2,379 582.2,428 582.2,477.1 								"/>
								<polyline class="st14" points="539.6,305 497.1,329.6 497.1,329.6 								"/>
								<line class="st14" x1="539.6" y1="305" x2="539.6" y2="354.2"/>
								<line class="st14" x1="539.6" y1="305" x2="582.2" y2="280.5"/>
								<polyline class="st14" points="582.2,231.3 539.6,206.7 497.1,231.3 								"/>
								<polyline class="st14" points="582.2,231.3 539.6,255.9 497.1,280.5 								"/>
								<line class="st14" x1="539.6" y1="255.9" x2="582.2" y2="280.5"/>
								<polyline class="st14" points="539.6,206.7 539.6,255.9 539.6,305 								"/>
							</g>
							<g>
								<polyline class="st15" points="369.5,403.5 327,379 284.4,403.5 								"/>
								<polyline class="st15" points="327,379 327,428.2 327,477.3 								"/>
							</g>
							<g>
								<polyline class="st16" points="369.5,305 327,280.5 327,280.5 327,280.5 								"/>
								<line class="st16" x1="327" y1="378.8" x2="369.5" y2="354.3"/>
								<polyline class="st16" points="369.5,305 369.4,305.1 327,329.6 								"/>
								<polyline class="st16" points="327,329.6 284.4,305 241.9,329.6 241.9,378.8 284.4,403.4 								"/>
								<line class="st16" x1="327" y1="378.8" x2="327" y2="329.7"/>
								<line class="st16" x1="284.4" y1="354.2" x2="241.9" y2="378.8"/>
								<line class="st16" x1="327" y1="329.6" x2="284.4" y2="354.2"/>
								<line class="st16" x1="284.4" y1="255.9" x2="241.9" y2="280.5"/>
								<polyline class="st16" points="241.9,329.6 284.4,354.2 284.4,354.2 								"/>
								<polyline class="st16" points="284.4,305 284.4,354.2 284.4,354.2 284.4,403.4 								"/>
								<line class="st16" x1="412" y1="280.5" x2="454.6" y2="305"/>
								<polyline class="st16" points="412,231.3 412,231.3 412,280.5 412,329.6 								"/>
								<line class="st16" x1="497.1" y1="280.5" x2="497.1" y2="231.3"/>
								<polyline class="st16" points="497.1,231.3 454.6,255.9 412,280.5 								"/>
								<polyline class="st16" points="412,231.3 412.1,231.3 454.6,255.9 								"/>
								<polyline class="st16" points="327,280.6 327,329.6 327,329.6 327,329.7 								"/>
								<polyline class="st16" points="327,280.5 327,280.5 327,231.3 327,231.3 284.4,206.7 								"/>
								<polyline class="st16" points="241.9,231.3 241.9,280.5 241.9,280.5 284.4,305 								"/>
								<line class="st16" x1="284.4" y1="255.9" x2="327" y2="280.5"/>
								<line class="st16" x1="284.4" y1="206.7" x2="284.4" y2="255.9"/>
								<polyline class="st16" points="412,329.8 369.7,354.3 369.5,354.4 								"/>
								<line class="st16" x1="369.5" y1="305.2" x2="412" y2="329.8"/>
								<polyline class="st16" points="369.5,354.2 369.5,354.3 369.5,354.4 369.5,403.4 								"/>
								<polyline class="st16" points="369.5,354.2 369.7,354.3 412,378.8 								"/>
								<polyline class="st16" points="412,329.6 412,329.8 412,378.8 412,428 								"/>
								<polyline class="st16" points="369.5,255.9 327,280.5 327,280.5 								"/>
								<line class="st16" x1="369.5" y1="255.9" x2="369.5" y2="305"/>
								<line class="st16" x1="369.5" y1="255.9" x2="412" y2="231.3"/>
								<polyline class="st16" points="412,182.1 369.5,157.5 327,182.1 								"/>
								<polyline class="st16" points="412,182.1 369.5,206.7 327,231.3 								"/>
								<line class="st16" x1="369.5" y1="206.7" x2="412" y2="231.3"/>
								<polyline class="st16" points="369.5,157.5 369.5,206.7 369.5,255.9 								"/>
							</g>
							<g>
								<circle class="st17" cx="284.5" cy="8.8" r="3.4"/>
								<path class="st17" d="M323.6,33.4c0-1.9,1.5-3.4,3.4-3.4s3.4,1.5,3.4,3.4c0,0.2,0,0.3,0,0.5V34c0,1.9-1.5,3.4-3.4,3.4
									s-3.4-1.5-3.4-3.4C323.6,33.8,323.6,33.6,323.6,33.4L323.6,33.4z"/>
								<path class="st17" d="M199.3,104c1.9,0,3.4,1.5,3.4,3.4v0.1c0,0.2,0,0.3,0,0.5c0,1.9-1.5,3.4-3.4,3.4s-3.4-1.5-3.4-3.4v-0.1
									c0-0.2,0-0.3,0-0.5C196,105.5,197.5,104,199.3,104z"/>
								<path class="st17" d="M153.5,131.9c0-1.9,1.5-3.4,3.4-3.4s3.4,1.5,3.4,3.4c0,0.2,0,0.3,0,0.5c0,0.1,0,0.1,0,0.1
									c0,1.9-1.5,3.4-3.4,3.4s-3.4-1.5-3.4-3.4c0-0.2,0-0.3,0-0.5V131.9z"/>
								<path class="st17" d="M111,205.7c0-1.9,1.5-3.4,3.4-3.4s3.4,1.5,3.4,3.4c0,0.2,0,0.3,0,0.5v0.1c0,1.9-1.5,3.4-3.4,3.4
									s-3.4-1.5-3.4-3.4c0-0.2,0-0.3,0-0.5C111,205.7,111,205.7,111,205.7z"/>
								<path class="st17" d="M245.3,83.2c0,1.8-1.5,3.3-3.4,3.3s-3.4-1.5-3.4-3.4c0-0.2,0-0.3,0-0.5c0-1.8,1.5-3.3,3.4-3.3
									s3.4,1.5,3.4,3.4C245.3,82.9,245.3,83.1,245.3,83.2z"/>
								<path class="st17" d="M284.5,54.8c1.9,0,3.4,1.5,3.4,3.4c0,0.2,0,0.3,0,0.5c0,1.8-1.5,3.3-3.4,3.3l0,0l0,0
									c-1.9,0-3.4-1.5-3.4-3.4c0-0.2,0-0.3,0-0.5C281.2,56.3,282.6,54.8,284.5,54.8z"/>
								<path class="st17" d="M153.5,82.8c0-1.9,1.5-3.4,3.4-3.4c0.5,0,0.9,0.1,1.3,0.3c1.2,0.5,2.1,1.7,2.1,3.1
									c0,0.3,0,0.5-0.1,0.7c-0.1,1.8-1.6,3.2-3.4,3.2c-1.9,0-3.4-1.5-3.4-3.4C153.4,83.1,153.4,83,153.5,82.8
									C153.5,82.8,153.5,82.8,153.5,82.8z"/>
								<circle class="st17" cx="71.8" cy="82.8" r="3.4"/>
								<circle class="st17" cx="71.8" cy="33.5" r="3.4"/>
								<circle class="st17" cx="114.3" cy="58.1" r="3.4"/>
								<path class="st17" d="M114.3,5.6c1.9,0,3.4,1.5,3.4,3.4c0,0.2,0,0.3,0,0.5c0,1.8-1.5,3.3-3.4,3.3l0,0l0,0
									c-1.9,0-3.4-1.5-3.4-3.4c0-0.2,0-0.3,0-0.5C111,7.1,112.5,5.6,114.3,5.6z"/>
								<circle class="st17" cx="241.9" cy="181.1" r="3.4"/>
								<path class="st17" d="M284.5,153.1c1.9,0,3.4,1.5,3.4,3.4c0,0.1,0,0.1,0,0.2c0,0.1,0,0.1,0,0.2c0,0.2,0,0.4-0.1,0.6
									c-0.2,1.7-1.6,3-3.3,3c-1.9,0-3.4-1.5-3.4-3.4c0-0.2,0-0.3,0-0.5v-0.1C281.1,154.6,282.6,153.1,284.5,153.1z"/>
								<path class="st17" d="M156.9,30.2c1.9,0,3.4,1.5,3.4,3.4c0,0.2,0,0.3,0,0.5c0,1.8-1.5,3.3-3.4,3.3s-3.4-1.5-3.4-3.4
									c0-0.2,0-0.3,0-0.5C153.5,31.7,155,30.2,156.9,30.2z"/>
								<path class="st17" d="M451.2,353.6c0-1.9,1.5-3.4,3.4-3.4s3.4,1.5,3.4,3.4c0,0.2,0,0.3,0,0.5v0.1c0,1.9-1.5,3.4-3.4,3.4
									s-3.4-1.5-3.4-3.4c0-0.2,0-0.3,0-0.5V353.6z"/>
								<path class="st17" d="M536.3,304.5c0-1.9,1.5-3.4,3.4-3.4s3.4,1.5,3.4,3.4c0,0.2,0,0.3,0,0.5l0,0c0,1.9-1.5,3.4-3.4,3.4
									s-3.4-1.5-3.4-3.4C536.3,304.9,536.3,304.7,536.3,304.5C536.3,304.6,536.3,304.6,536.3,304.5z"/>
								<circle class="st17" cx="667.3" cy="279.8" r="3.4"/>
								<circle class="st17" cx="624.7" cy="255.3" r="3.4"/>
								<circle class="st17" cx="667.3" cy="230.7" r="3.4"/>
								<path class="st17" d="M624.7,202.7c0.6,0,1.1,0.2,1.6,0.4c1.1,0.6,1.8,1.7,1.8,3c0,0.6-0.2,1.1-0.4,1.6
									c-0.6,1.1-1.7,1.8-3,1.8c-1.9,0-3.4-1.5-3.4-3.4l0,0l0,0C621.4,204.2,622.9,202.7,624.7,202.7z"/>
								<path class="st17" d="M536.3,255.4C536.3,255.4,536.3,255.3,536.3,255.4C536.3,255.3,536.3,255.3,536.3,255.4
									C536.3,255.3,536.3,255.3,536.3,255.4C536.3,255.3,536.3,255.3,536.3,255.4c0-2,1.5-3.5,3.4-3.5c0.6,0,1.1,0.2,1.6,0.4
									c1.1,0.6,1.8,1.7,1.8,3c0,0.3,0,0.5-0.1,0.7c-0.1,1.8-1.6,3.2-3.4,3.2c-1.9,0-3.4-1.5-3.4-3.4
									C536.3,255.7,536.3,255.6,536.3,255.4L536.3,255.4z"/>
								<path class="st17" d="M493.8,279.8c0-1.9,1.5-3.4,3.4-3.4s3.4,1.5,3.4,3.4c0,0.2,0,0.3,0,0.5v0.1c0,1.9-1.5,3.4-3.4,3.4
									s-3.4-1.5-3.4-3.4c0-0.2,0-0.3,0-0.5C493.8,279.9,493.8,279.9,493.8,279.8z"/>
								<path class="st17" d="M578.8,378.2c0-1.9,1.5-3.4,3.4-3.4s3.4,1.5,3.4,3.4c0,0.2,0,0.3,0,0.5v0.1c0,1.9-1.5,3.4-3.4,3.4
									s-3.4-1.5-3.4-3.4c0-0.2,0-0.3,0-0.5C578.8,378.3,578.8,378.3,578.8,378.2z"/>
								<path class="st17" d="M578.8,329.1C578.8,329,578.8,329,578.8,329.1C578.8,329,578.8,329,578.8,329.1c0-1.9,1.5-3.4,3.4-3.4
									c0.6,0,1.2,0.2,1.7,0.5c1.1,0.6,1.8,1.7,1.8,3c0,0.5-0.1,1-0.3,1.5c-0.4,1.4-1.7,2.4-3.2,2.4c-1.9,0-3.4-1.5-3.4-3.4
									c0-0.2,0-0.3,0-0.5C578.8,329.1,578.8,329.1,578.8,329.1z"/>
								<circle class="st17" cx="624.7" cy="353.6" r="3.4"/>
								<path class="st17" d="M621.4,304.5L621.4,304.5c0-1.9,1.5-3.4,3.4-3.4s3.4,1.5,3.4,3.4v0.1c0,0,0,0,0,0.1c0,0.2,0,0.3,0,0.5
									c0,1.8-1.5,3.3-3.4,3.3s-3.4-1.5-3.4-3.4C621.3,304.9,621.3,304.7,621.4,304.5L621.4,304.5z"/>
								<path class="st17" d="M582.2,276.5c1.9,0,3.4,1.5,3.4,3.4c0,0.1,0,0.2,0,0.4c0,0.1,0,0.2,0,0.2c0,1.9-1.5,3.4-3.4,3.4
									s-3.4-1.5-3.4-3.4c0-0.1,0-0.2,0-0.4c0-0.1,0-0.2,0-0.2C578.8,278,580.3,276.5,582.2,276.5z"/>
								<path class="st17" d="M538,153.4c0.5-0.3,1-0.4,1.6-0.4c1.9,0,3.4,1.5,3.4,3.4v0.1c0,0.2,0,0.3,0,0.5c0,1.9-1.5,3.4-3.4,3.4
									c-1.7,0-3.2-1.3-3.3-3c-0.1-0.3-0.1-0.6-0.1-0.9C536.2,155.1,536.9,153.9,538,153.4z"/>
								<path class="st17" d="M497.1,226.7c1.9,0,3.4,1.5,3.4,3.4v0.1c0,0.2,0,0.3,0,0.5c0,0.3-0.1,0.7-0.2,1
									c-0.4,1.4-1.7,2.4-3.2,2.4c-1.9,0-3.4-1.5-3.4-3.4v-0.1c0-0.2,0-0.3,0-0.5C493.7,228.2,495.2,226.7,497.1,226.7z"/>
								<path class="st17" d="M454.6,202.1c1.9,0,3.4,1.5,3.4,3.4v0.1c0,0.2,0,0.3,0,0.5c0,1.9-1.5,3.4-3.4,3.4s-3.4-1.5-3.4-3.4
									V206c0-0.2,0-0.3,0-0.5C451.2,203.6,452.7,202.1,454.6,202.1z"/>
								<path class="st17" d="M624.7,152.9c1.9,0,3.4,1.5,3.4,3.4v0.1c0,0.2,0,0.3,0,0.5c0,1.9-1.5,3.4-3.4,3.4s-3.4-1.5-3.4-3.4
									v-0.1c0-0.2,0-0.3,0-0.5C621.3,154.4,622.8,152.9,624.7,152.9z"/>
								<circle class="st17" cx="582.2" cy="82.6" r="3.4"/>
								<circle class="st17" cx="624.7" cy="107.1" r="3.4"/>
								<path class="st17" d="M497.1,177.5c1.9,0,3.4,1.5,3.4,3.4l0,0l0,0l0,0l0,0l0,0c0,0.2,0,0.3,0,0.5c0,0.3-0.1,0.7-0.2,1
									c-0.4,1.4-1.7,2.4-3.2,2.4c-1.9,0-3.4-1.5-3.4-3.4l0,0c0-0.2,0-0.3,0-0.5l0,0l0,0l0,0l0,0
									C493.7,179,495.2,177.5,497.1,177.5z"/>
								<path class="st17" d="M497.1,128.4c0.5,0,0.9,0.1,1.3,0.3c1.2,0.5,2.1,1.7,2.1,3.1c0,1.9-1.5,3.4-3.4,3.4
									c-0.5,0-0.9-0.1-1.3-0.3c-1.2-0.5-2.1-1.7-2.1-3.1C493.7,129.9,495.2,128.4,497.1,128.4z"/>
								<path class="st17" d="M454.6,152.9c1.8,0,3.3,1.5,3.4,3.3c0,0.2,0.1,0.4,0.1,0.6c0,0.6-0.2,1.1-0.4,1.6
									c-0.6,1.1-1.7,1.8-3,1.8c-1.9,0-3.4-1.5-3.4-3.4l0,0l0,0l0,0l0,0v-0.1c0-0.2,0-0.3,0-0.5
									C451.2,154.4,452.7,152.9,454.6,152.9z"/>
								<path class="st17" d="M454.6,103.8c1.9,0,3.4,1.5,3.4,3.4v0.1c0,0.2,0,0.3,0,0.5c0,1.9-1.5,3.4-3.4,3.4s-3.4-1.5-3.4-3.4
									v-0.1c0-0.2,0-0.3,0-0.5C451.2,105.3,452.7,103.8,454.6,103.8z"/>
								<path class="st17" d="M582.2,177.7c1.8,0,3.3,1.5,3.4,3.3c0,0.1,0,0.3,0,0.5c0,1.9-1.5,3.4-3.4,3.4c-1.8,0-3.3-1.5-3.4-3.3
									c0-0.1,0-0.3,0-0.5C578.8,179.2,580.3,177.7,582.2,177.7z"/>
								<path class="st17" d="M539.6,202.1c1.9,0,3.4,1.5,3.4,3.4v0.1c0,0.2,0,0.3,0,0.5l0,0l0,0c0,0.2,0,0.3,0,0.5v0.1
									c0,1.9-1.5,3.4-3.4,3.4s-3.4-1.5-3.4-3.4c0-0.2,0-0.3,0-0.5v-0.1l0,0l0,0V206c0-0.2,0-0.3,0-0.5
									C536.3,203.6,537.8,202.1,539.6,202.1z"/>
								<path class="st17" d="M582.2,226.7c1.9,0,3.4,1.5,3.4,3.4v0.1c0,0.2,0,0.3,0,0.5c0,1.9-1.5,3.4-3.4,3.4s-3.4-1.5-3.4-3.4
									v-0.1c0-0.2,0-0.3,0-0.5C578.8,228.2,580.3,226.7,582.2,226.7z"/>
								<circle class="st17" cx="539.6" cy="107.1" r="3.4"/>
								<circle class="st17" cx="497.1" cy="82.6" r="3.4"/>
								<circle class="st17" cx="582.2" cy="33.4" r="3.4"/>
								<circle class="st17" cx="539.6" cy="8.8" r="3.4"/>
								<path class="st17" d="M493.8,378.3L493.8,378.3c0-0.1,0-0.2,0-0.2c0-1.9,1.5-3.4,3.4-3.4s3.4,1.5,3.4,3.4v0.1v0.1
									c0,0.2,0,0.3,0,0.5v0.1c0,1.9-1.5,3.4-3.4,3.4s-3.4-1.5-3.4-3.4C493.7,378.7,493.8,378.6,493.8,378.3
									C493.8,378.4,493.8,378.4,493.8,378.3z"/>
								<path class="st17" d="M284.5,350.4c1.9,0,3.4,1.5,3.4,3.4c0,0.2,0,0.3,0,0.5c0,1.8-1.5,3.3-3.4,3.3l0,0l0,0
									c-1.9,0-3.4-1.5-3.4-3.4c0-0.2,0-0.3,0-0.5C281.2,351.9,282.6,350.4,284.5,350.4z"/>
								<circle class="st17" cx="241.9" cy="378.3" r="3.4"/>
								<path class="st17" d="M415.4,329.6L415.4,329.6c0,1.9-1.5,3.4-3.4,3.4l0,0l0,0c-1.9,0-3.4-1.5-3.4-3.4l0,0l0,0
									c0-0.2,0-0.3,0-0.5l0,0c0,0,0,0,0-0.1c0,0,0,0,0-0.1c0-1.9,1.5-3.4,3.4-3.4s3.4,1.5,3.4,3.4c0,0,0,0,0,0.1c0,0,0,0,0,0.1
									C415.4,329.3,415.4,329.5,415.4,329.6z"/>
								<path class="st17" d="M369.5,308c-1.9,0-3.4-1.5-3.4-3.4v-0.1v-0.1c0-1.9,1.5-3.4,3.4-3.4s3.4,1.5,3.4,3.4v0.1v0.1
									C372.9,306.5,371.4,308,369.5,308z"/>
								<path class="st17" d="M366.2,255.4C366.2,255.4,366.2,255.3,366.2,255.4C366.2,255.3,366.2,255.3,366.2,255.4
									c0-0.1,0-0.1,0-0.1l0,0c0-1.9,1.5-3.4,3.4-3.4s3.4,1.5,3.4,3.4l0,0l0,0l0,0l0,0c0,0.2,0,0.3,0,0.5l0,0
									c0,1.9-1.5,3.4-3.4,3.4s-3.4-1.5-3.4-3.4C366.1,255.7,366.2,255.6,366.2,255.4L366.2,255.4z"/>
								<path class="st17" d="M323.6,181.5c0-1.9,1.5-3.4,3.4-3.4s3.4,1.5,3.4,3.4c0,0.2,0,0.3,0,0.5v0.1c0,1.9-1.5,3.4-3.4,3.4
									s-3.4-1.5-3.4-3.4C323.6,181.9,323.6,181.7,323.6,181.5C323.6,181.6,323.6,181.5,323.6,181.5z"/>
								<circle class="st17" cx="369.5" cy="156.9" r="3.4"/>
								<circle class="st17" cx="327" cy="132.3" r="3.4"/>
								<path class="st17" d="M454.6,258.8c-1.9,0-3.4-1.5-3.4-3.4c0,0,0,0,0-0.1v-0.1c0-1.9,1.5-3.4,3.4-3.4s3.4,1.5,3.4,3.4
									c0,0,0,0,0,0.1v0.1C458,257.3,456.5,258.8,454.6,258.8z"/>
								<path class="st17" d="M415.4,280.5c0,1.9-1.5,3.4-3.4,3.4s-3.4-1.5-3.4-3.4c0-0.2,0-0.3,0-0.4V280v-0.1
									c0-1.9,1.5-3.4,3.4-3.4s3.4,1.5,3.4,3.4v0.1v0.1C415.4,280.2,415.4,280.3,415.4,280.5z"/>
								<path class="st17" d="M366.2,206.1L366.2,206.1L366.2,206.1c0-1.9,1.5-3.4,3.4-3.4s3.4,1.5,3.4,3.4l0,0l0,0
									c0,0.2,0,0.3,0,0.5v0.1c0,1.9-1.5,3.4-3.4,3.4s-3.4-1.5-3.4-3.4c0-0.2,0-0.3,0-0.5C366.2,206.2,366.2,206.1,366.2,206.1z"/>
								<path class="st17" d="M369.5,104.4c1.9,0,3.4,1.5,3.4,3.4c0,0.6-0.2,1.1-0.4,1.6c-0.6,1.1-1.7,1.8-3,1.8
									c-1.9,0-3.4-1.5-3.4-3.4c0-0.6,0.2-1.1,0.4-1.6C367.1,105.1,368.2,104.4,369.5,104.4z"/>
								<path class="st17" d="M412.7,135.6c-0.2,0-0.4,0.1-0.7,0.1c-1.9,0-3.4-1.5-3.4-3.4c0-0.1,0-0.2,0-0.3s0-0.2,0-0.3
									c0-1.9,1.5-3.4,3.4-3.4s3.4,1.5,3.4,3.4v0.1c0,0.2,0,0.3,0,0.5C415.4,134,414.3,135.3,412.7,135.6z"/>
								<path class="st17" d="M412.7,86.5c-0.2,0-0.4,0.1-0.7,0.1c-1.9,0-3.4-1.5-3.4-3.4c0-1.6,1.2-3,2.7-3.3
									c0.2,0,0.4-0.1,0.7-0.1c1.9,0,3.4,1.5,3.4,3.4C415.4,84.8,414.3,86.2,412.7,86.5z"/>
								<path class="st17" d="M241.9,37.3c-1.9,0-3.4-1.5-3.4-3.4c0-0.2,0-0.3,0-0.5c0-1.8,1.5-3.3,3.4-3.3s3.4,1.5,3.4,3.4
									c0,0.2,0,0.3,0,0.5C245.2,35.8,243.7,37.3,241.9,37.3z"/>
								<circle class="st17" cx="327" cy="83.2" r="3.4"/>
								<path class="st17" d="M412,30.6c1.9,0,3.4,1.5,3.4,3.4v0.1v0.1c0,1.9-1.5,3.4-3.4,3.4s-3.4-1.5-3.4-3.4v-0.1V34
									C408.7,32.1,410.2,30.6,412,30.6z"/>
								<path class="st17" d="M369.5,55.2c0.6,0,1.2,0.2,1.7,0.5c1.1,0.6,1.8,1.7,1.8,3c0,1.9-1.5,3.4-3.4,3.4
									c-0.6,0-1.2-0.2-1.7-0.5c-1.1-0.6-1.8-1.7-1.8-3C366.1,56.7,367.6,55.2,369.5,55.2z"/>
								<circle class="st17" cx="454.6" cy="58.6" r="3.4"/>
								<path class="st17" d="M366.2,8.9L366.2,8.9c0-2,1.5-3.5,3.4-3.5s3.4,1.5,3.4,3.4c0,0.2,0,0.3,0,0.5v0.1c0,0,0,0,0,0.1
									c0,0,0,0,0,0.1c0,1.9-1.5,3.4-3.4,3.4s-3.4-1.5-3.4-3.4c0,0,0,0,0-0.1c0,0,0,0,0-0.1C366.1,9.2,366.2,9.1,366.2,8.9z"/>
								<circle class="st17" cx="114.3" cy="255.5" r="3.4"/>
								<path class="st17" d="M153.5,181.2v-0.1c0-1.9,1.5-3.4,3.4-3.4s3.4,1.5,3.4,3.4c0,0.2,0,0.3,0,0.5v0.1v0.1v0.1
									c0,1.9-1.5,3.4-3.4,3.4s-3.4-1.5-3.4-3.4v-0.1v-0.1C153.5,181.5,153.5,181.4,153.5,181.2z"/>
								<circle class="st17" cx="71.8" cy="280" r="3.4"/>
								<circle class="st17" cx="29.2" cy="206.2" r="3.4"/>
								<path class="st17" d="M71.8,227.5c1.9,0,3.4,1.5,3.4,3.4l0,0l0,0c0,1.9-1.5,3.4-3.4,3.4l0,0l0,0c-1.9,0-3.4-1.5-3.4-3.4
									c0-0.8,0.3-1.6,0.8-2.1C69.8,228,70.7,227.5,71.8,227.5z"/>
								<path class="st17" d="M75.1,181.7c0,1.9-1.5,3.4-3.4,3.4s-3.4-1.5-3.4-3.4c0-0.2,0-0.3,0-0.5v-0.1c0-1.9,1.5-3.4,3.4-3.4
									s3.4,1.5,3.4,3.4c0,0.2,0,0.3,0,0.5C75.1,181.6,75.1,181.6,75.1,181.7z"/>
								<path class="st17" d="M199.4,160.5c-1.9,0-3.4-1.5-3.4-3.4c0-0.2,0-0.3,0-0.4v-0.1v-0.1c0-1.9,1.5-3.4,3.4-3.4
									c0.6,0,1.2,0.2,1.7,0.5c1.1,0.6,1.8,1.7,1.8,3c0,0.5-0.1,1-0.3,1.5C202.2,159.5,200.9,160.5,199.4,160.5z"/>
								<circle class="st17" cx="241.9" cy="132.5" r="3.4"/>
								<path class="st17" d="M75.1,132.5c0,1.9-1.5,3.4-3.4,3.4s-3.4-1.5-3.4-3.4c0-0.2,0-0.3,0-0.5v-0.1c0-1.9,1.5-3.4,3.4-3.4
									s3.4,1.5,3.4,3.4c0,0.2,0,0.3,0,0.5V132.5z"/>
								<path class="st17" d="M199.4,252.1c1.9,0,3.4,1.5,3.4,3.4c0,1.9-1.5,3.4-3.4,3.4s-3.4-1.5-3.4-3.4
									C196,253.6,197.5,252.1,199.4,252.1z"/>
								<path class="st17" d="M245.3,230.9c0,0.1,0,0.1,0,0.2c0,0.1,0,0.1,0,0.2c0,1.9-1.5,3.4-3.4,3.4s-3.4-1.5-3.4-3.4
									c0-0.1,0-0.1,0-0.2c0-0.1,0-0.1,0-0.2c0-0.2,0-0.3,0-0.5v-0.1c0-1.9,1.5-3.4,3.4-3.4s3.4,1.5,3.4,3.4
									C245.3,230.4,245.3,230.6,245.3,230.9C245.3,230.8,245.3,230.8,245.3,230.9z"/>
								<path class="st17" d="M156.8,227.5c0.6,0,1.2,0.2,1.7,0.5c1.1,0.6,1.8,1.7,1.8,3s-0.7,2.4-1.8,3c-0.5,0.3-1.1,0.5-1.7,0.5
									c-1.9,0-3.4-1.5-3.4-3.4V231c0,0,0,0,0-0.1l0,0l0,0C153.5,229,155,227.5,156.8,227.5z"/>
								<path class="st17" d="M199.4,301.2c1.9,0,3.4,1.5,3.4,3.4s-1.5,3.4-3.4,3.4s-3.4-1.5-3.4-3.4S197.5,301.2,199.4,301.2z"/>
								<path class="st17" d="M199.4,202.9c1.9,0,3.4,1.5,3.4,3.4v0.1v0.1c0,1.9-1.5,3.4-3.4,3.4s-3.4-1.5-3.4-3.4v-0.1
									c0,0,0,0,0-0.1C196,204.4,197.5,202.9,199.4,202.9z"/>
								<path class="st17" d="M111,156.6c0-0.1,0-0.1,0-0.2c0-1.9,1.5-3.4,3.4-3.4l0,0l0,0c1.9,0,3.4,1.5,3.4,3.4c0,0.1,0,0.2,0,0.3
									s0,0.2,0,0.4c0,0.6-0.2,1.2-0.4,1.7c-0.6,1.1-1.7,1.8-3,1.8c-1.9,0-3.4-1.5-3.4-3.4l0,0l0,0C110.9,157,111,156.8,111,156.6z
									"/>
								<path class="st17" d="M202.7,58.6C202.7,58.6,202.7,58.7,202.7,58.6C202.7,58.7,202.7,58.7,202.7,58.6c0,2-1.5,3.5-3.4,3.5
									s-3.4-1.5-3.4-3.4c0,0,0,0,0-0.1c0,0,0,0,0-0.1c0-0.2,0-0.3,0-0.5l0,0c0-1.9,1.5-3.4,3.4-3.4s3.4,1.5,3.4,3.4
									C202.8,58.3,202.7,58.5,202.7,58.6L202.7,58.6z"/>
								<path class="st17" d="M202.7,9.4C202.7,9.5,202.7,9.5,202.7,9.4c0,0.1,0,0.1,0,0.2c0,1.9-1.5,3.4-3.4,3.4s-3.4-1.5-3.4-3.4
									V9.5c0,0,0,0,0-0.1c0-0.2,0-0.3,0-0.5l0,0c0-1.9,1.5-3.4,3.4-3.4s3.4,1.5,3.4,3.4C202.8,9.1,202.7,9.3,202.7,9.4L202.7,9.4z
									"/>
								<path class="st17" d="M493.8,329.1V329l0,0l0,0c0-1.9,1.5-3.4,3.4-3.4s3.4,1.5,3.4,3.4l0,0l0,0c0,0.1,0,0.2,0,0.3
									c0,0.1,0,0.3,0,0.4c0,0.6-0.2,1.2-0.4,1.7c-0.6,1.1-1.7,1.8-3,1.8c-1.9,0-3.4-1.5-3.4-3.4l0,0l0,0l0,0l0,0
									C493.7,329.5,493.8,329.3,493.8,329.1z"/>
								<circle class="st17" cx="539.6" cy="354.2" r="3.4"/>
								<circle class="st17" cx="454.6" cy="305" r="3.4"/>
								<path class="st17" d="M323.6,280v-0.1c0-0.9,0.4-1.8,1-2.4s1.4-1,2.4-1c1.9,0,3.4,1.5,3.4,3.4l0,0l0,0c0,0.2,0,0.3,0,0.5
									v0.1v0.1l0,0c0,1.9-1.5,3.4-3.4,3.4s-3.4-1.5-3.4-3.4l0,0l0,0l0,0l0,0C323.6,280.3,323.6,280.1,323.6,280z"/>
								<path class="st17" d="M323.6,329.2L323.6,329.2c0-0.1,0-0.1,0-0.1s0,0,0-0.1c0-1.9,1.5-3.4,3.4-3.4s3.4,1.5,3.4,3.4v0.1
									c0,0,0,0,0,0.1c0,0.2,0,0.3,0,0.5l0,0l0,0l0,0c0,1.9-1.5,3.4-3.4,3.4s-3.4-1.5-3.4-3.4l0,0l0,0
									C323.6,329.5,323.6,329.3,323.6,329.2z"/>
								<circle class="st17" cx="241.9" cy="329.6" r="3.4"/>
								<circle class="st17" cx="327" cy="378.8" r="3.4"/>
								<circle class="st17" cx="241.9" cy="280.5" r="3.4"/>
								<path class="st17" d="M281.1,255.4c0-0.1,0-0.1,0-0.1c0-1.9,1.5-3.4,3.4-3.4s3.4,1.5,3.4,3.4c0,0.2,0,0.3,0,0.5
									c0,0.1,0,0.1,0,0.1c0,1.9-1.5,3.4-3.4,3.4s-3.4-1.5-3.4-3.4C281.1,255.7,281.1,255.5,281.1,255.4z"/>
								<path class="st17" d="M323.6,230.8C323.6,230.7,323.6,230.7,323.6,230.8c0-1.9,1.5-3.4,3.4-3.4s3.4,1.5,3.4,3.4
									c0,0.2,0,0.3,0,0.5v0.1l0,0l0,0c0,1.9-1.5,3.4-3.4,3.4s-3.4-1.5-3.4-3.4l0,0l0,0C323.6,231.1,323.6,230.9,323.6,230.8z"/>
								<path class="st17" d="M284.4,308.4c-1.9,0-3.4-1.5-3.4-3.4c0-0.2,0-0.3,0-0.5v-0.1c0-1.9,1.5-3.4,3.4-3.4s3.4,1.5,3.4,3.4
									c0,0.2,0,0.3,0,0.5v0.1C287.8,306.9,286.3,308.4,284.4,308.4z"/>
								<path class="st17" d="M281.1,206.2v-0.1l0,0l0,0c0-1.9,1.5-3.4,3.4-3.4s3.4,1.5,3.4,3.4l0,0l0,0c0,0.2,0,0.3,0,0.5v0.1
									c0,1.9-1.5,3.4-3.4,3.4s-3.4-1.5-3.4-3.4C281.1,206.5,281.1,206.4,281.1,206.2z"/>
								<path class="st17" d="M369.5,350.8c0.6,0,1.2,0.2,1.7,0.5c1.1,0.6,1.8,1.7,1.8,3c0,1.9-1.5,3.4-3.4,3.4
									c-0.3,0-0.7-0.1-1-0.2c-1.5-0.4-2.5-1.7-2.5-3.3l0,0l0,0C366.1,352.3,367.6,350.8,369.5,350.8z"/>
								<path class="st17" d="M412,382.2c-1.9,0-3.4-1.5-3.4-3.4c0-0.2,0-0.3,0-0.5c0-0.6,0.2-1.1,0.4-1.6c0.6-1.1,1.7-1.8,3-1.8
									c1.9,0,3.4,1.5,3.4,3.4c0,0.2,0,0.5-0.1,0.7C415.3,380.8,413.8,382.2,412,382.2z"/>
								<path class="st17" d="M415.4,231.3c0,1.9-1.5,3.4-3.4,3.4s-3.4-1.5-3.4-3.4c0-0.2,0-0.3,0-0.5l0,0c0-1.9,1.5-3.4,3.4-3.4
									s3.4,1.5,3.4,3.4C415.4,231,415.4,231.1,415.4,231.3L415.4,231.3z"/>
								<path class="st17" d="M415.4,182.1c0,1.9-1.5,3.4-3.4,3.4s-3.4-1.5-3.4-3.4c0-0.2,0-0.3,0-0.5v-0.1c0-1.9,1.5-3.4,3.4-3.4
									s3.4,1.5,3.4,3.4c0,0.2,0,0.3,0,0.5C415.4,182,415.4,182,415.4,182.1z"/>
							</g>
						</g>
					</g>
				</g>
			</g>
		</g>
	</g>
</g>
<path class="st18" d="M384.2,221.4c0,0,0.4,35.3,0,41l10.3,0.9l0.8-36.2l-5.1-7.2L384.2,221.4z"/>
<g>
	<g>
		<path class="st19" d="M460.1,211.4v-15.7c0-7.4,6-13.4,13.4-13.4h22.3c7.4,0,13.4,6,13.4,13.4v15.7"/>
		<path class="st20" d="M459.1,210.6v25.2c0,10.2,8.2,18.4,18.4,18.4h14.1c10.2,0,18.4-8.3,18.4-18.4v-25.2H459.1z M488.2,231.7
			v10.6h-7.2v-10.6c-1.1-0.9-1.8-2.4-1.8-4c0-2.9,2.4-5.3,5.3-5.3c2.9,0,5.3,2.4,5.3,5.3C489.9,229.3,489.3,230.7,488.2,231.7z"/>
	</g>
	<g>
		<path class="st19" d="M575.6,149v125.5c0,4-3.4,7.3-7.7,7.3H387.4c-4.2,0-7.7-3.3-7.7-7.3V149c0-4,3.4-7.3,7.7-7.3h180.5
			C572.2,141.7,575.6,144.9,575.6,149z"/>
		<path class="st21" d="M575.6,149v13.6H379.7V149c0-4,3.4-7.3,7.7-7.3h180.5C572.2,141.7,575.6,144.9,575.6,149z"/>
		<g>
			<ellipse class="st22" cx="560.1" cy="152.1" rx="3.3" ry="3.3"/>
			<ellipse class="st22" cx="547.4" cy="152.1" rx="3.3" ry="3.3"/>
			<ellipse class="st22" cx="533.8" cy="152.1" rx="3.3" ry="3.3"/>
		</g>
	</g>
	<path class="st23" d="M375.2,44.8v119.6c0,3.8-1.9,6.9-4.2,6.9H250c-2.3,0-4.2-3.1-4.2-6.9V44.8c0-3.8,1.9-6.9,4.2-6.9h121
		C373.3,37.9,375.2,41,375.2,44.8z"/>
	<path class="st24" d="M375.2,44.8v12.9H245.8V44.8c0-3.8,1.9-6.9,4.2-6.9h121C373.3,37.9,375.2,41,375.2,44.8z"/>
	<g>
		<ellipse class="st25" cx="361.8" cy="48.5" rx="2.7" ry="2.8"/>
		<ellipse class="st25" cx="351.1" cy="48.5" rx="2.7" ry="2.8"/>
		<ellipse class="st25" cx="339.7" cy="48.5" rx="2.7" ry="2.8"/>
	</g>
	<path class="st26" d="M310,66.2c-12.5,5.7-25.4,7.9-38.6,6.9v47.7c0,21.3,38.6,38.6,38.6,38.6s38.6-17.3,38.6-38.6V73.1
		C334.4,74.1,321.3,72.2,310,66.2z"/>
	<polygon class="st27" points="313.7,128 325.4,90 320.5,90 310.6,122.5 300.4,107.5 294.6,107.5 308.5,128 	"/>
	<path class="st28" d="M425,204c15.5,1.7,29.8,10.5,40.5,40.2l24.3,73.5c-0.6,11.7-14.4,17.2-23.2,17.4c-7.4,0.2-13.9-4-16.9-10.6
		l-26.2-57.2L425,204z"/>
	<path class="st28" d="M352.2,190.9c-14.1-2.9-29-2.9-44.4,19.2L231,266.3c7.9,25,21.6,38.5,52.1,18.5l49.4-35.7L352.2,190.9z"/>
	<polygon class="st28" points="230.9,266.3 205,191.3 233.2,175.4 272.3,256.5 	"/>
	<path class="st20" d="M333.3,324l-15.2,51.9h126.1c-4.2-23.3-4.7-34.6-14.5-53L333.3,324z"/>
	<g>
		<path class="st28" d="M233.2,175.4c-8.8-21.4-24.9-43.6-42.2-58.6c-1.1-1-2.3-1.9-3.6-2.3c-3-0.8-3.3,2.1-2.4,4.5
			c0.5,1.5,1.5,2.8,2.4,4.1c3.7,5,8.7,12,13,16.5c-1.4-0.4-3.5-0.7-5-0.7s-3.1,0.4-4.2,1.4s-1.6,2.8-1,4.2c-1.3-0.6-2.5-1.1-3.9-0.6
			c-1.1,0.4-1.9,1.5-2.3,2.7c-0.3,1.2-0.2,2.4,0,3.7c-1.3-0.9-3.7-0.3-4.4,1.2s-0.5,3.2-0.2,4.9c1,6.1,1.2,10.8,3.9,16.4
			c0.4,0.8,0.9,1.7,1.8,2c0.8,0.2,1.7-0.1,2.3-0.7c0.6-0.6,1-1.4,1.4-2.1c3.1,3.1,5.9,7.6,8.4,11.2c2.5,3.7,4.1,6.2,8,8.1
			L233.2,175.4z"/>
		<path class="st29" d="M188.7,171.9c-0.3-6.2-1.2-11-2.7-16.9c0.7,3.7,1.9,7.3,3.4,10.6c1.4,2.9,3.2,5.8,5.8,7.5
			c0.3,0.2,0.6,0.4,0.9,0.4c1,0.1,1.5-1.1,1.7-2c1.5-7.8-2.3-18.6-5.5-25.6c3.4,6.7,5.6,14.4,11,19.3c0.4,0.4,0.9,0.8,1.5,0.9
			c1,0.1,1.8-0.8,2-1.8s0-2-0.3-3c-1.8-7.1-4.4-13.9-7.6-20.5"/>
		<path class="st28" d="M218.1,153.7c-3.4-3.3-10-1.6-13.9-0.5c-3.7,1-7.7,1.4-11.3,2.7c-2.7,1-6.2,1.5-8.5,3.3
			c-2.7,2-1.5,5.2,1.4,5.7c5,0.9,10.1,0.1,15-1.1c0.7-0.2,1.5-0.3,2.1-0.1c0.7,0.2,1.2,0.8,1.7,1.3c5.7,5.7,14,8.5,21.8,7.4
			L218.1,153.7z"/>
	</g>
	<path class="st29" d="M218.1,153.7c-3.4-3.3-10-1.6-13.9-0.5c-3.7,1-7.7,1.4-11.3,2.7c-2.7,1-6.2,1.5-8.5,3.3
		c-2.7,2-1.5,5.2,1.4,5.7c5,0.9,10.1,0.1,15-1.1c0.7-0.2,1.5-0.3,2.1-0.1c0.7,0.2,1.2,0.8,1.7,1.3c5.7,5.7,14,8.5,21.8,7.4"/>
	<path class="st30" d="M352.2,190.8C352.2,190.8,368.5,195.8,352.2,190.8s-29.2,3.9-29.2,3.9l-49.1,29.1l27.7,52.8l30.8-27.5
		l19.7-58.2"/>
	<path class="st30" d="M436.7,336.3l-111.5,1l-2.1-36.6c-2.1-27.9-5.6-58.8,5.4-72.6l23.7-37.3l7.7,4.8c0.3,4.8,2.2,9.4,5.4,13.1
		c1.3,1.6,2.9,2.9,4.7,3.9c2.2,1.1,4.6,1.6,7.1,1.9c7.5,0.7,15-1.3,21.8-4.7c3.9-2,7.6-4.4,11.2-7l15,1.2l10.3,66.7L436.7,336.3z"/>
	<path class="st28" d="M410,202.7c-3.5,2.7-7.2,5.1-11.2,7c-6.7,3.4-14.3,5.4-21.8,4.7c-2.4-0.2-4.9-0.7-7.1-1.9
		c-1.8-1-3.4-2.3-4.7-3.9c-3.1-3.6-5-8.3-5.4-13.1l49.5,7L410,202.7z"/>
	<path class="st30" d="M425.5,203.9c27.4,1.1,36.5,12.6,47.9,42.7l12.2,34.3l-47.3,18.9l-18.2-34.3L425.5,203.9z"/>
	<line class="st29" x1="428.5" y1="292.9" x2="417.4" y2="256.7"/>
	<line class="st31" x1="372.1" y1="375.9" x2="372.1" y2="363.3"/>
	<polygon points="397.1,336.7 438.8,345.9 436.7,336.3 	"/>
	<path class="st28" d="M313.3,305.3c-0.3,0.1-0.7,0.3-0.9,0.5c-0.7,0.6-0.6,1.7-0.1,2.4c0.5,0.7,1.4,1.1,2.2,1.4
		c4.4,1.4,9.1,0.2,13.7-0.4c3.3-0.4,6.7-0.5,10.1-0.2c3.1,0.3,6.2,0.9,9.3,0.7c3.1-0.2,6.4-1.4,8.1-3.9c1.8-2.6,1.5-6.6-1.2-8.3
		c-5.3-3.2-12.9-2.9-18.3-0.7C328.7,300,320.9,302.4,313.3,305.3z"/>
	<ellipse class="st19" cx="160.3" cy="111.3" rx="49.1" ry="49.1"/>
	<g>
		<circle class="st20" cx="160.4" cy="95.7" r="9.7"/>
		<path class="st20" d="M160.4,108.2c-11.1,0-20.1,9-20.1,20.1h40.3C180.6,117.2,171.5,108.2,160.4,108.2z"/>
	</g>
	<circle class="st28" cx="352.5" cy="144.4" r="14"/>
	<path class="st28" d="M390,165.6c-8.8,7.9-20.2,13-31.6,12.7c-18.1-0.5-14.3-26.8-14.5-39.1c-0.1-5.6,0.1-11.3,1.8-16.7
		c6-18.4,26.5-21.2,42.3-14.9c16.7,6.7,21.8,24.2,14.8,40.5C400.1,154.5,395.6,160.6,390,165.6z"/>
	<path class="st28" d="M359.1,171.5l0.3,6.4l0.3,7.1l1.5,18.9l39.9-1.1c-4.8-12.5-4.3-28-4.3-46.2L359.1,171.5z"/>
	<path class="st32" d="M367.2,140.3c0,1.1,0.6,2.1,1.4,2.1s1.4-0.9,1.4-2.1c0-1.1-0.6-2.1-1.4-2.1
		C367.8,138.3,367.2,139.2,367.2,140.3z"/>
	<ellipse class="st32" cx="349.2" cy="140.3" rx="1.4" ry="2.1"/>
	<path class="st24" d="M366.7,135.7c-1.2-0.1-2.5-0.4-3.3-1.2c-0.3-0.3-0.6-0.7-0.5-1.2c0.1-0.7,0.8-1.2,1.5-1.4
		c2.9-1,6.2-0.6,9.2,0.2c0.7,0.2,1.5,0.5,2,1c1.6,1.6,0,2.9-1.6,2.8C371.5,135.8,369.1,135.9,366.7,135.7z"/>
	<path class="st24" d="M346.4,135c-1.1-0.1-2.3-0.4-3.1-1.2c-0.3-0.3-0.5-0.7-0.5-1.2c0.1-0.7,0.8-1.2,1.4-1.4
		c2.7-1,5.7-0.6,8.5,0.2c0.7,0.2,1.4,0.5,1.9,1c1.5,1.6,0,2.9-1.5,2.8C350.8,135.1,348.6,135.3,346.4,135z"/>
	<line class="st33" x1="354.9" y1="141.3" x2="357.5" y2="141.3"/>
	<g>
		<path class="st33" d="M356.4,134.7l-0.8,11.2c-3.9,2.3-5,4.5-0.4,7.7"/>
		<path class="st33" d="M354.3,160c4.3,2.2,8.4-1.3,12.4-5.4"/>
		<circle class="st33" cx="367.8" cy="140.8" r="10.1"/>
		<ellipse class="st33" cx="346.3" cy="140.8" rx="8.9" ry="10.1"/>
		<line class="st33" x1="337.3" y1="141.2" x2="344.2" y2="141.2"/>
		<line class="st33" x1="378" y1="142" x2="390.6" y2="138.3"/>
	</g>
	<path class="st24" d="M389.7,148.3c0-0.5,0-1,0-1.6c-1.6,0.4-3.3-0.6-4.2-2c-0.9-1.4-1.2-3.1-1.4-4.7c-0.5-3.9-0.3-7.7,0-11.6
		c-3,1.4-6.4,3.3-9.2,0c-1.1-1.3-1.4-3.2-0.5-4.6c-4.3,2.9-9,5.8-14.2,5.8c-1.4,0-2.8-0.3-4-1.1c-1.1-0.8-1.8-2.4-1.3-3.7
		c-2.5,2.1-5.8,3.6-9.1,4c-1.8,0.2-3.7,0.2-5.3-0.7c-2.2-1.2-2.8-3.6-2-5.9c0.3-1,0.9-1.9,1.6-2.8c1-1.4,2.2-2.7,3.5-4
		c-2.8-1.2-5.8-2.8-6.9-5.7c-1-2.7-0.4-5.9,2.1-7.6c1.8-1.2,4-1.3,6.1-1.4c4.3,0,8.5,0.5,12.7,1.4c-1.6-0.9-3.2-1.9-4.2-3.4
		s-1.2-3.8,0-5.1c0.8-0.9,2.1-1.1,3.3-1.2c3.8-0.3,7.6,0.6,11.2,1.7c9.8,2.9,19.3,6.8,28.3,11.5c2.6,1.4,5.2,2.9,7.1,5.1
		c1.9,2.3,2.8,5.5,1.7,8.2c2.1,0.6,3.7,2.5,4.2,4.6c1,3.6,0.3,7.4-0.9,10.9s-3.1,6.7-4.6,10.1c-3.3,7.4-5.2,15.7-6.4,23.7
		c-3.6-0.4-4.8-5.6-5.7-8.4C390.4,156.1,389.8,152.2,389.7,148.3z"/>
	<ellipse class="st28" cx="398.2" cy="144.4" rx="14" ry="14"/>
	<path class="st33" d="M407.7,144.4c0-5.3-4.3-9.5-9.5-9.5c-5.3,0-9.5,4.3-9.5,9.5"/>
	<line class="st33" x1="396.2" y1="135.1" x2="393" y2="150.9"/>
	<polygon class="st34" points="359.4,178 359.7,185.1 374.9,173.5 	"/>
	<path class="st35" d="M317.5,227.2v125.5c0,4-3.4,7.3-7.7,7.3H129.3c-4.2,0-7.7-3.3-7.7-7.3V227.2c0-4,3.4-7.3,7.7-7.3h180.5
		C314.1,219.9,317.5,223.2,317.5,227.2z"/>
	<path class="st24" d="M317.5,227.2v13.6H121.6v-13.6c0-4,3.4-7.3,7.7-7.3h180.5C314.1,219.9,317.5,223.2,317.5,227.2z"/>
	<g>
		<ellipse class="st25" cx="302" cy="230.3" rx="3.3" ry="3.3"/>
		<ellipse class="st25" cx="289.3" cy="230.3" rx="3.3" ry="3.3"/>
		<ellipse class="st25" cx="275.7" cy="230.3" rx="3.3" ry="3.3"/>
	</g>
	<path class="st30" d="M292.1,334.2h-136c-4.6,0-8.4-5-9.1-11.6l0,0c-0.8-8.1,3.5-15.4,9.1-15.4h136c5.6,0,9.8,7.2,9.1,15.4l0,0
		C300.5,329.2,296.6,334.2,292.1,334.2z"/>
	<g>
		<circle class="st24" cx="166.7" cy="320.3" r="3.2"/>
		<circle class="st24" cx="179" cy="320.3" r="3.2"/>
		<path class="st24" d="M191.3,317.1c1.8,0,3.2,1.4,3.2,3.2s-1.4,3.2-3.2,3.2s-3.2-1.4-3.2-3.2S189.5,317.1,191.3,317.1z"/>
		<circle class="st24" cx="203.6" cy="320.3" r="3.2"/>
		<circle class="st24" cx="215.9" cy="320.3" r="3.2"/>
		<circle class="st24" cx="228.2" cy="320.3" r="3.2"/>
		<circle class="st24" cx="240.5" cy="320.3" r="3.2"/>
		<circle class="st24" cx="252.8" cy="320.3" r="3.2"/>
		<circle class="st24" cx="265" cy="320.3" r="3.2"/>
		<circle class="st24" cx="277.3" cy="320.3" r="3.2"/>
	</g>
	<g>
		<path class="st36" d="M228.2,298.6h-9c-6.5,0-11.8-5.3-11.8-11.8v-16h32.5v16C240,293.3,234.7,298.6,228.2,298.6z"/>
		<path class="st36" d="M240,260.4c0-4.9-4-8.9-8.9-8.9h-14.8c-4.9,0-8.9,4-8.9,8.9v10.4"/>
	</g>
	<path class="st24" d="M227.1,281.8c0-1.9-1.5-3.4-3.4-3.4s-3.4,1.5-3.4,3.4c0,1,0.4,1.9,1.1,2.5v6.7h4.6v-6.7
		C226.7,283.7,227.1,282.8,227.1,281.8z"/>
	<g>
		<polygon class="st28" points="450.9,295.2 374.2,292.9 373.6,323.8 462.8,335.1 		"/>
		<path class="st28" d="M338,295.7c-2.5,0.2-5.9,3.7-7.6,5.3c-4.2,4.1-8,7.8-11.4,12.7c-3.6,5.3-6.8,11-9.4,16.8
			c-0.5,1.2-1.1,2.4-0.9,3.7c0.1,1.3,1.1,2.6,2.4,2.7c1.2,0.1,2.2-0.9,3.1-1.9c5.1-5.8,10.3-11.6,15.4-17.4
			c-4.1,5.8-7.9,11.9-11.3,18.3c-1.1,2.1-3.5,8.4,0.6,9.1c1.8,0.3,3.4-1.3,4.5-2.8c4.2-5.8,8-12,11.3-18.4
			c-2.1,4.4-3.5,8.8-4.4,13.5c-0.4,2.3-1.5,12.9,3.5,11.2c2.4-0.8,2.6-5.1,2.8-7.1c0.6-4.5,2-9,4.1-13c-1.8,5.4-1.6,11.9,0.7,17.1
			c0.3,0.7,0.7,1.4,1.2,2c0.6,0.5,1.4,0.9,2.1,0.7c1.4-0.3,1.9-2,2.1-3.4c0.3-1.9,0.6-3.8,0.7-5.7c0.1-3-0.3-6.1,0.5-9
			c10.1,0.3,19.1-3.3,25.6-6.3l0.6-30.9C374.2,292.9,338,295.7,338,295.7z"/>
	</g>
	<line class="st29" x1="446.5" y1="295.2" x2="462.8" y2="295.2"/>
	<line class="st29" x1="321.7" y1="310.2" x2="331.6" y2="299.9"/>
	<path class="st30" d="M360.6,195.5c0,0,2.5,15.3,14.7,18.7c0,0-7.8,9.6-8.6,11.5c0,0-11.8-11.5-11.7-33.2
		C355,192.5,358.8,194.1,360.6,195.5z"/>
	<path class="st30" d="M399.6,198.1c0,0-10.8,16.4-26.1,15.5c0,0,9.4,10.8,10.3,13.4c0,0,20.6-14.1,27-24.3
		C410.8,202.7,403.7,199.9,399.6,198.1z"/>
	<g>
		<circle class="st35" cx="376.1" cy="235" r="1.4"/>
		<circle class="st35" cx="376.1" cy="244" r="1.4"/>
		<circle class="st35" cx="376" cy="253.1" r="1.4"/>
	</g>
	<line class="st29" x1="366.5" y1="225.8" x2="374.1" y2="214.9"/>
	<line class="st29" x1="374.1" y1="214.9" x2="383.7" y2="226.9"/>
	<line class="st29" x1="370.3" y1="255.4" x2="370.4" y2="232.7"/>
	<line class="st29" x1="392.8" y1="225.4" x2="411.2" y2="204.4"/>
	<line class="st29" x1="321.7" y1="226.9" x2="321.7" y2="257.4"/>
</g>
</svg>
